<?xml version="1.0" encoding="utf-8" standalone="no"?>
<!DOCTYPE svg PUBLIC "-//W3C//DTD SVG 1.1//EN"
  "http://www.w3.org/Graphics/SVG/1.1/DTD/svg11.dtd">
<svg xmlns:xlink="http://www.w3.org/1999/xlink" width="564.813673pt" height="420.360625pt" viewBox="0 0 564.813673 420.360625" xmlns="http://www.w3.org/2000/svg" version="1.1">
 <metadata>
  <rdf:RDF xmlns:dc="http://purl.org/dc/elements/1.1/" xmlns:cc="http://creativecommons.org/ns#" xmlns:rdf="http://www.w3.org/1999/02/22-rdf-syntax-ns#">
   <cc:Work>
    <dc:type rdf:resource="http://purl.org/dc/dcmitype/StillImage"/>
    <dc:date>2025-12-17T18:32:48.561089</dc:date>
    <dc:format>image/svg+xml</dc:format>
    <dc:creator>
     <cc:Agent>
      <dc:title>Matplotlib v3.10.5, https://matplotlib.org/</dc:title>
     </cc:Agent>
    </dc:creator>
   </cc:Work>
  </rdf:RDF>
 </metadata>
 <defs>
  <style type="text/css">*{stroke-linejoin: round; stroke-linecap: butt}</style>
 </defs>
 <g id="figure_1">
  <g id="patch_1">
   <path d="M 0 420.360625 
L 564.813673 420.360625 
L 564.813673 0 
L 0 0 
z
" style="fill: #ffffff"/>
  </g>
  <g id="axes_1">
   <g id="patch_2">
    <path d="M 80.868438 376.9975 
L 557.613673 376.9975 
L 557.613673 25.3575 
L 80.868438 25.3575 
z
" style="fill: #ffffff"/>
   </g>
   <g id="matplotlib.axis_1">
    <g id="xtick_1">
     <g id="line2d_1">
      <path d="M 102.538675 376.9975 
L 102.538675 25.3575 
" clip-path="url(#p0483a54a0f)" style="fill: none; stroke: #b0b0b0; stroke-opacity: 0.3; stroke-width: 0.8; stroke-linecap: square"/>
     </g>
     <g id="line2d_2">
      <defs>
       <path id="m1598e333eb" d="M 0 0 
L 0 3.5 
" style="stroke: #000000; stroke-width: 0.8"/>
      </defs>
      <g>
       <use xlink:href="#m1598e333eb" x="102.538675" y="376.9975" style="stroke: #000000; stroke-width: 0.8"/>
      </g>
     </g>
     <g id="text_1">
      <!-- 0 -->
      <g transform="translate(98.721175 393.115625) scale(0.12 -0.12)">
       <defs>
        <path id="DejaVuSerif-30" d="M 2034 219 
Q 2513 219 2750 744 
Q 2988 1269 2988 2328 
Q 2988 3391 2750 3916 
Q 2513 4441 2034 4441 
Q 1556 4441 1318 3916 
Q 1081 3391 1081 2328 
Q 1081 1269 1318 744 
Q 1556 219 2034 219 
z
M 2034 -91 
Q 1275 -91 848 546 
Q 422 1184 422 2328 
Q 422 3475 848 4112 
Q 1275 4750 2034 4750 
Q 2797 4750 3222 4112 
Q 3647 3475 3647 2328 
Q 3647 1184 3222 546 
Q 2797 -91 2034 -91 
z
" transform="scale(0.015625)"/>
       </defs>
       <use xlink:href="#DejaVuSerif-30"/>
      </g>
     </g>
    </g>
    <g id="xtick_2">
     <g id="line2d_3">
      <path d="M 189.219627 376.9975 
L 189.219627 25.3575 
" clip-path="url(#p0483a54a0f)" style="fill: none; stroke: #b0b0b0; stroke-opacity: 0.3; stroke-width: 0.8; stroke-linecap: square"/>
     </g>
     <g id="line2d_4">
      <g>
       <use xlink:href="#m1598e333eb" x="189.219627" y="376.9975" style="stroke: #000000; stroke-width: 0.8"/>
      </g>
     </g>
     <g id="text_2">
      <!-- 20 -->
      <g transform="translate(181.584627 393.115625) scale(0.12 -0.12)">
       <defs>
        <path id="DejaVuSerif-32" d="M 819 3553 
L 469 3553 
L 469 4384 
Q 803 4563 1142 4656 
Q 1481 4750 1806 4750 
Q 2534 4750 2956 4397 
Q 3378 4044 3378 3438 
Q 3378 2753 2422 1800 
Q 2347 1728 2309 1691 
L 1131 513 
L 3078 513 
L 3078 1088 
L 3444 1088 
L 3444 0 
L 434 0 
L 434 341 
L 1850 1753 
Q 2319 2222 2519 2614 
Q 2719 3006 2719 3438 
Q 2719 3909 2473 4175 
Q 2228 4441 1797 4441 
Q 1350 4441 1106 4219 
Q 863 3997 819 3553 
z
" transform="scale(0.015625)"/>
       </defs>
       <use xlink:href="#DejaVuSerif-32"/>
       <use xlink:href="#DejaVuSerif-30" transform="translate(63.623047 0)"/>
      </g>
     </g>
    </g>
    <g id="xtick_3">
     <g id="line2d_5">
      <path d="M 275.900579 376.9975 
L 275.900579 25.3575 
" clip-path="url(#p0483a54a0f)" style="fill: none; stroke: #b0b0b0; stroke-opacity: 0.3; stroke-width: 0.8; stroke-linecap: square"/>
     </g>
     <g id="line2d_6">
      <g>
       <use xlink:href="#m1598e333eb" x="275.900579" y="376.9975" style="stroke: #000000; stroke-width: 0.8"/>
      </g>
     </g>
     <g id="text_3">
      <!-- 40 -->
      <g transform="translate(268.265579 393.115625) scale(0.12 -0.12)">
       <defs>
        <path id="DejaVuSerif-34" d="M 2234 1581 
L 2234 4063 
L 641 1581 
L 2234 1581 
z
M 3609 0 
L 1484 0 
L 1484 331 
L 2234 331 
L 2234 1247 
L 197 1247 
L 197 1588 
L 2241 4750 
L 2859 4750 
L 2859 1581 
L 3750 1581 
L 3750 1247 
L 2859 1247 
L 2859 331 
L 3609 331 
L 3609 0 
z
" transform="scale(0.015625)"/>
       </defs>
       <use xlink:href="#DejaVuSerif-34"/>
       <use xlink:href="#DejaVuSerif-30" transform="translate(63.623047 0)"/>
      </g>
     </g>
    </g>
    <g id="xtick_4">
     <g id="line2d_7">
      <path d="M 362.581531 376.9975 
L 362.581531 25.3575 
" clip-path="url(#p0483a54a0f)" style="fill: none; stroke: #b0b0b0; stroke-opacity: 0.3; stroke-width: 0.8; stroke-linecap: square"/>
     </g>
     <g id="line2d_8">
      <g>
       <use xlink:href="#m1598e333eb" x="362.581531" y="376.9975" style="stroke: #000000; stroke-width: 0.8"/>
      </g>
     </g>
     <g id="text_4">
      <!-- 60 -->
      <g transform="translate(354.946531 393.115625) scale(0.12 -0.12)">
       <defs>
        <path id="DejaVuSerif-36" d="M 2094 219 
Q 2534 219 2771 542 
Q 3009 866 3009 1472 
Q 3009 2078 2771 2401 
Q 2534 2725 2094 2725 
Q 1647 2725 1412 2412 
Q 1178 2100 1178 1509 
Q 1178 888 1415 553 
Q 1653 219 2094 219 
z
M 1075 2569 
Q 1288 2803 1556 2918 
Q 1825 3034 2163 3034 
Q 2859 3034 3264 2615 
Q 3669 2197 3669 1472 
Q 3669 763 3233 336 
Q 2797 -91 2069 -91 
Q 1278 -91 853 498 
Q 428 1088 428 2181 
Q 428 3406 931 4078 
Q 1434 4750 2350 4750 
Q 2597 4750 2869 4703 
Q 3141 4656 3425 4563 
L 3425 3794 
L 3072 3794 
Q 3034 4109 2831 4275 
Q 2628 4441 2284 4441 
Q 1678 4441 1381 3981 
Q 1084 3522 1075 2569 
z
" transform="scale(0.015625)"/>
       </defs>
       <use xlink:href="#DejaVuSerif-36"/>
       <use xlink:href="#DejaVuSerif-30" transform="translate(63.623047 0)"/>
      </g>
     </g>
    </g>
    <g id="xtick_5">
     <g id="line2d_9">
      <path d="M 449.262483 376.9975 
L 449.262483 25.3575 
" clip-path="url(#p0483a54a0f)" style="fill: none; stroke: #b0b0b0; stroke-opacity: 0.3; stroke-width: 0.8; stroke-linecap: square"/>
     </g>
     <g id="line2d_10">
      <g>
       <use xlink:href="#m1598e333eb" x="449.262483" y="376.9975" style="stroke: #000000; stroke-width: 0.8"/>
      </g>
     </g>
     <g id="text_5">
      <!-- 80 -->
      <g transform="translate(441.627483 393.115625) scale(0.12 -0.12)">
       <defs>
        <path id="DejaVuSerif-38" d="M 2981 1275 
Q 2981 1775 2732 2051 
Q 2484 2328 2034 2328 
Q 1584 2328 1336 2051 
Q 1088 1775 1088 1275 
Q 1088 772 1336 495 
Q 1584 219 2034 219 
Q 2484 219 2732 495 
Q 2981 772 2981 1275 
z
M 2853 3541 
Q 2853 3966 2637 4203 
Q 2422 4441 2034 4441 
Q 1650 4441 1433 4203 
Q 1216 3966 1216 3541 
Q 1216 3113 1433 2875 
Q 1650 2638 2034 2638 
Q 2422 2638 2637 2875 
Q 2853 3113 2853 3541 
z
M 2516 2484 
Q 3047 2413 3344 2092 
Q 3641 1772 3641 1275 
Q 3641 619 3225 264 
Q 2809 -91 2034 -91 
Q 1263 -91 845 264 
Q 428 619 428 1275 
Q 428 1772 725 2092 
Q 1022 2413 1556 2484 
Q 1084 2569 832 2842 
Q 581 3116 581 3541 
Q 581 4103 968 4426 
Q 1356 4750 2034 4750 
Q 2713 4750 3100 4426 
Q 3488 4103 3488 3541 
Q 3488 3116 3236 2842 
Q 2984 2569 2516 2484 
z
" transform="scale(0.015625)"/>
       </defs>
       <use xlink:href="#DejaVuSerif-38"/>
       <use xlink:href="#DejaVuSerif-30" transform="translate(63.623047 0)"/>
      </g>
     </g>
    </g>
    <g id="xtick_6">
     <g id="line2d_11">
      <path d="M 535.943435 376.9975 
L 535.943435 25.3575 
" clip-path="url(#p0483a54a0f)" style="fill: none; stroke: #b0b0b0; stroke-opacity: 0.3; stroke-width: 0.8; stroke-linecap: square"/>
     </g>
     <g id="line2d_12">
      <g>
       <use xlink:href="#m1598e333eb" x="535.943435" y="376.9975" style="stroke: #000000; stroke-width: 0.8"/>
      </g>
     </g>
     <g id="text_6">
      <!-- 100 -->
      <g transform="translate(524.490935 393.115625) scale(0.12 -0.12)">
       <defs>
        <path id="DejaVuSerif-31" d="M 909 0 
L 909 331 
L 1722 331 
L 1722 4213 
L 781 3603 
L 781 4013 
L 1919 4750 
L 2350 4750 
L 2350 331 
L 3163 331 
L 3163 0 
L 909 0 
z
" transform="scale(0.015625)"/>
       </defs>
       <use xlink:href="#DejaVuSerif-31"/>
       <use xlink:href="#DejaVuSerif-30" transform="translate(63.623047 0)"/>
       <use xlink:href="#DejaVuSerif-30" transform="translate(127.246094 0)"/>
      </g>
     </g>
    </g>
    <g id="text_7">
     <!-- Time (reduced units) -->
     <g transform="translate(244.956837 410.249062) scale(0.14 -0.14)">
      <defs>
       <path id="DejaVuSerif-54" d="M 1222 0 
L 1222 331 
L 1819 331 
L 1819 4294 
L 447 4294 
L 447 3566 
L 63 3566 
L 63 4666 
L 4206 4666 
L 4206 3566 
L 3822 3566 
L 3822 4294 
L 2450 4294 
L 2450 331 
L 3047 331 
L 3047 0 
L 1222 0 
z
" transform="scale(0.015625)"/>
       <path id="DejaVuSerif-69" d="M 622 4353 
Q 622 4497 726 4603 
Q 831 4709 978 4709 
Q 1122 4709 1226 4603 
Q 1331 4497 1331 4353 
Q 1331 4206 1228 4103 
Q 1125 4000 978 4000 
Q 831 4000 726 4103 
Q 622 4206 622 4353 
z
M 1356 331 
L 1900 331 
L 1900 0 
L 231 0 
L 231 331 
L 781 331 
L 781 2988 
L 231 2988 
L 231 3322 
L 1356 3322 
L 1356 331 
z
" transform="scale(0.015625)"/>
       <path id="DejaVuSerif-6d" d="M 3316 2675 
Q 3481 3041 3739 3227 
Q 3997 3413 4341 3413 
Q 4863 3413 5119 3089 
Q 5375 2766 5375 2113 
L 5375 331 
L 5894 331 
L 5894 0 
L 4300 0 
L 4300 331 
L 4800 331 
L 4800 2047 
Q 4800 2556 4650 2772 
Q 4500 2988 4153 2988 
Q 3769 2988 3567 2697 
Q 3366 2406 3366 1850 
L 3366 331 
L 3866 331 
L 3866 0 
L 2291 0 
L 2291 331 
L 2791 331 
L 2791 2069 
Q 2791 2566 2641 2777 
Q 2491 2988 2144 2988 
Q 1759 2988 1557 2697 
Q 1356 2406 1356 1850 
L 1356 331 
L 1856 331 
L 1856 0 
L 263 0 
L 263 331 
L 781 331 
L 781 2994 
L 231 2994 
L 231 3322 
L 1356 3322 
L 1356 2731 
Q 1516 3063 1762 3238 
Q 2009 3413 2322 3413 
Q 2709 3413 2968 3220 
Q 3228 3028 3316 2675 
z
" transform="scale(0.015625)"/>
       <path id="DejaVuSerif-65" d="M 3469 1600 
L 991 1600 
L 991 1575 
Q 991 903 1244 561 
Q 1497 219 1991 219 
Q 2369 219 2611 417 
Q 2853 616 2950 1006 
L 3413 1006 
Q 3275 459 2904 184 
Q 2534 -91 1931 -91 
Q 1203 -91 761 389 
Q 319 869 319 1663 
Q 319 2450 753 2931 
Q 1188 3413 1894 3413 
Q 2647 3413 3050 2948 
Q 3453 2484 3469 1600 
z
M 2791 1931 
Q 2772 2513 2545 2808 
Q 2319 3103 1894 3103 
Q 1497 3103 1269 2806 
Q 1041 2509 991 1931 
L 2791 1931 
z
" transform="scale(0.015625)"/>
       <path id="DejaVuSerif-20" transform="scale(0.015625)"/>
       <path id="DejaVuSerif-28" d="M 2041 -997 
Q 1281 -656 893 83 
Q 506 822 506 1931 
Q 506 3044 893 3783 
Q 1281 4522 2041 4863 
L 2041 4556 
Q 1559 4225 1350 3623 
Q 1141 3022 1141 1931 
Q 1141 844 1350 242 
Q 1559 -359 2041 -691 
L 2041 -997 
z
" transform="scale(0.015625)"/>
       <path id="DejaVuSerif-72" d="M 3059 3328 
L 3059 2497 
L 2728 2497 
Q 2713 2744 2591 2866 
Q 2469 2988 2234 2988 
Q 1809 2988 1582 2694 
Q 1356 2400 1356 1850 
L 1356 331 
L 2022 331 
L 2022 0 
L 263 0 
L 263 331 
L 781 331 
L 781 2994 
L 231 2994 
L 231 3322 
L 1356 3322 
L 1356 2731 
Q 1525 3078 1790 3245 
Q 2056 3413 2438 3413 
Q 2578 3413 2733 3391 
Q 2888 3369 3059 3328 
z
" transform="scale(0.015625)"/>
       <path id="DejaVuSerif-64" d="M 3359 331 
L 3909 331 
L 3909 0 
L 2784 0 
L 2784 519 
Q 2616 206 2355 57 
Q 2094 -91 1709 -91 
Q 1097 -91 708 395 
Q 319 881 319 1663 
Q 319 2444 706 2928 
Q 1094 3413 1709 3413 
Q 2094 3413 2355 3264 
Q 2616 3116 2784 2803 
L 2784 4531 
L 2241 4531 
L 2241 4863 
L 3359 4863 
L 3359 331 
z
M 2784 1497 
L 2784 1825 
Q 2784 2422 2554 2737 
Q 2325 3053 1888 3053 
Q 1444 3053 1217 2703 
Q 991 2353 991 1663 
Q 991 975 1217 622 
Q 1444 269 1888 269 
Q 2325 269 2554 583 
Q 2784 897 2784 1497 
z
" transform="scale(0.015625)"/>
       <path id="DejaVuSerif-75" d="M 2266 3322 
L 3341 3322 
L 3341 331 
L 3884 331 
L 3884 0 
L 2766 0 
L 2766 588 
Q 2606 256 2353 82 
Q 2100 -91 1766 -91 
Q 1213 -91 952 223 
Q 691 538 691 1209 
L 691 2988 
L 172 2988 
L 172 3322 
L 1269 3322 
L 1269 1388 
Q 1269 781 1417 556 
Q 1566 331 1947 331 
Q 2347 331 2556 625 
Q 2766 919 2766 1478 
L 2766 2988 
L 2266 2988 
L 2266 3322 
z
" transform="scale(0.015625)"/>
       <path id="DejaVuSerif-63" d="M 3291 997 
Q 3169 466 2822 187 
Q 2475 -91 1925 -91 
Q 1200 -91 759 389 
Q 319 869 319 1663 
Q 319 2459 759 2936 
Q 1200 3413 1925 3413 
Q 2241 3413 2553 3339 
Q 2866 3266 3181 3116 
L 3181 2266 
L 2847 2266 
Q 2781 2703 2561 2903 
Q 2341 3103 1931 3103 
Q 1466 3103 1228 2742 
Q 991 2381 991 1663 
Q 991 944 1227 581 
Q 1463 219 1931 219 
Q 2303 219 2525 412 
Q 2747 606 2828 997 
L 3291 997 
z
" transform="scale(0.015625)"/>
       <path id="DejaVuSerif-6e" d="M 263 0 
L 263 331 
L 781 331 
L 781 2988 
L 231 2988 
L 231 3322 
L 1356 3322 
L 1356 2731 
Q 1516 3069 1770 3241 
Q 2025 3413 2363 3413 
Q 2913 3413 3172 3097 
Q 3431 2781 3431 2113 
L 3431 331 
L 3944 331 
L 3944 0 
L 2356 0 
L 2356 331 
L 2853 331 
L 2853 1931 
Q 2853 2541 2703 2767 
Q 2553 2994 2175 2994 
Q 1775 2994 1565 2701 
Q 1356 2409 1356 1850 
L 1356 331 
L 1856 331 
L 1856 0 
L 263 0 
z
" transform="scale(0.015625)"/>
       <path id="DejaVuSerif-74" d="M 691 2988 
L 184 2988 
L 184 3322 
L 691 3322 
L 691 4353 
L 1269 4353 
L 1269 3322 
L 2350 3322 
L 2350 2988 
L 1269 2988 
L 1269 878 
Q 1269 456 1350 337 
Q 1431 219 1650 219 
Q 1875 219 1978 351 
Q 2081 484 2088 781 
L 2522 781 
Q 2497 328 2275 118 
Q 2053 -91 1600 -91 
Q 1103 -91 897 129 
Q 691 350 691 878 
L 691 2988 
z
" transform="scale(0.015625)"/>
       <path id="DejaVuSerif-73" d="M 359 184 
L 359 959 
L 691 959 
Q 703 588 923 403 
Q 1144 219 1575 219 
Q 1963 219 2166 364 
Q 2369 509 2369 788 
Q 2369 1006 2220 1140 
Q 2072 1275 1594 1428 
L 1178 1569 
Q 750 1706 558 1912 
Q 366 2119 366 2438 
Q 366 2894 700 3153 
Q 1034 3413 1625 3413 
Q 1888 3413 2178 3344 
Q 2469 3275 2778 3144 
L 2778 2419 
L 2447 2419 
Q 2434 2741 2221 2922 
Q 2009 3103 1644 3103 
Q 1281 3103 1095 2975 
Q 909 2847 909 2591 
Q 909 2381 1050 2254 
Q 1191 2128 1613 1997 
L 2069 1856 
Q 2541 1709 2748 1489 
Q 2956 1269 2956 922 
Q 2956 450 2595 179 
Q 2234 -91 1600 -91 
Q 1278 -91 972 -22 
Q 666 47 359 184 
z
" transform="scale(0.015625)"/>
       <path id="DejaVuSerif-29" d="M 453 -997 
L 453 -691 
Q 934 -359 1145 242 
Q 1356 844 1356 1931 
Q 1356 3022 1145 3623 
Q 934 4225 453 4556 
L 453 4863 
Q 1216 4522 1603 3783 
Q 1991 3044 1991 1931 
Q 1991 822 1603 83 
Q 1216 -656 453 -997 
z
" transform="scale(0.015625)"/>
      </defs>
      <use xlink:href="#DejaVuSerif-54"/>
      <use xlink:href="#DejaVuSerif-69" transform="translate(66.699219 0)"/>
      <use xlink:href="#DejaVuSerif-6d" transform="translate(98.681641 0)"/>
      <use xlink:href="#DejaVuSerif-65" transform="translate(193.505859 0)"/>
      <use xlink:href="#DejaVuSerif-20" transform="translate(252.685547 0)"/>
      <use xlink:href="#DejaVuSerif-28" transform="translate(284.472656 0)"/>
      <use xlink:href="#DejaVuSerif-72" transform="translate(323.486328 0)"/>
      <use xlink:href="#DejaVuSerif-65" transform="translate(371.289062 0)"/>
      <use xlink:href="#DejaVuSerif-64" transform="translate(430.46875 0)"/>
      <use xlink:href="#DejaVuSerif-75" transform="translate(494.482422 0)"/>
      <use xlink:href="#DejaVuSerif-63" transform="translate(558.886719 0)"/>
      <use xlink:href="#DejaVuSerif-65" transform="translate(614.892578 0)"/>
      <use xlink:href="#DejaVuSerif-64" transform="translate(674.072266 0)"/>
      <use xlink:href="#DejaVuSerif-20" transform="translate(738.085938 0)"/>
      <use xlink:href="#DejaVuSerif-75" transform="translate(769.873047 0)"/>
      <use xlink:href="#DejaVuSerif-6e" transform="translate(834.277344 0)"/>
      <use xlink:href="#DejaVuSerif-69" transform="translate(898.681641 0)"/>
      <use xlink:href="#DejaVuSerif-74" transform="translate(930.664062 0)"/>
      <use xlink:href="#DejaVuSerif-73" transform="translate(970.849609 0)"/>
      <use xlink:href="#DejaVuSerif-29" transform="translate(1022.167969 0)"/>
     </g>
    </g>
   </g>
   <g id="matplotlib.axis_2">
    <g id="ytick_1">
     <g id="line2d_13">
      <path d="M 80.868438 41.535976 
L 557.613673 41.535976 
" clip-path="url(#p0483a54a0f)" style="fill: none; stroke: #b0b0b0; stroke-opacity: 0.3; stroke-width: 0.8; stroke-linecap: square"/>
     </g>
     <g id="line2d_14">
      <defs>
       <path id="m668ce171b5" d="M 0 0 
L -3.5 0 
" style="stroke: #000000; stroke-width: 0.8"/>
      </defs>
      <g>
       <use xlink:href="#m668ce171b5" x="80.868438" y="41.535976" style="stroke: #000000; stroke-width: 0.8"/>
      </g>
     </g>
     <g id="text_8">
      <!-- $\mathdefault{10^{-3}}$ -->
      <g transform="translate(45.788438 46.095039) scale(0.12 -0.12)">
       <defs>
        <path id="DejaVuSerif-2212" d="M 678 2259 
L 4684 2259 
L 4684 1753 
L 678 1753 
L 678 2259 
z
" transform="scale(0.015625)"/>
        <path id="DejaVuSerif-33" d="M 622 4469 
Q 988 4606 1323 4678 
Q 1659 4750 1953 4750 
Q 2638 4750 3022 4454 
Q 3406 4159 3406 3634 
Q 3406 3213 3140 2930 
Q 2875 2647 2388 2547 
Q 2963 2466 3280 2130 
Q 3597 1794 3597 1259 
Q 3597 606 3158 257 
Q 2719 -91 1894 -91 
Q 1528 -91 1179 -12 
Q 831 66 488 225 
L 488 1131 
L 838 1131 
Q 869 681 1141 450 
Q 1413 219 1906 219 
Q 2384 219 2661 495 
Q 2938 772 2938 1253 
Q 2938 1803 2653 2086 
Q 2369 2369 1819 2369 
L 1522 2369 
L 1522 2688 
L 1678 2688 
Q 2225 2688 2498 2914 
Q 2772 3141 2772 3597 
Q 2772 4006 2547 4223 
Q 2322 4441 1900 4441 
Q 1478 4441 1245 4241 
Q 1013 4041 972 3647 
L 622 3647 
L 622 4469 
z
" transform="scale(0.015625)"/>
       </defs>
       <use xlink:href="#DejaVuSerif-31" transform="translate(0 0.7125)"/>
       <use xlink:href="#DejaVuSerif-30" transform="translate(63.623047 0.7125)"/>
       <use xlink:href="#DejaVuSerif-2212" transform="translate(128.154453 37.046875) scale(0.7)"/>
       <use xlink:href="#DejaVuSerif-33" transform="translate(186.806797 37.046875) scale(0.7)"/>
      </g>
     </g>
    </g>
    <g id="ytick_2">
     <g id="line2d_15">
      <defs>
       <path id="m935bfaf6a7" d="M 0 0 
L -2 0 
" style="stroke: #000000; stroke-width: 0.6"/>
      </defs>
      <g>
       <use xlink:href="#m935bfaf6a7" x="80.868438" y="334.583042" style="stroke: #000000; stroke-width: 0.6"/>
      </g>
     </g>
     <g id="text_9">
      <!-- $\mathdefault{4\times10^{-4}}$ -->
      <g transform="translate(24.948438 339.142104) scale(0.12 -0.12)">
       <defs>
        <path id="DejaVuSerif-d7" d="M 4481 3450 
L 3034 2003 
L 4481 563 
L 4122 213 
L 2681 1650 
L 1241 213 
L 884 563 
L 2322 2003 
L 884 3450 
L 1241 3803 
L 2681 2363 
L 4122 3803 
L 4481 3450 
z
" transform="scale(0.015625)"/>
       </defs>
       <use xlink:href="#DejaVuSerif-34" transform="translate(0 0.7125)"/>
       <use xlink:href="#DejaVuSerif-d7" transform="translate(83.105469 0.7125)"/>
       <use xlink:href="#DejaVuSerif-31" transform="translate(186.376953 0.7125)"/>
       <use xlink:href="#DejaVuSerif-30" transform="translate(250 0.7125)"/>
       <use xlink:href="#DejaVuSerif-2212" transform="translate(314.531406 37.046875) scale(0.7)"/>
       <use xlink:href="#DejaVuSerif-34" transform="translate(373.18375 37.046875) scale(0.7)"/>
      </g>
     </g>
    </g>
    <g id="ytick_3">
     <g id="line2d_16">
      <g>
       <use xlink:href="#m935bfaf6a7" x="80.868438" y="263.217524" style="stroke: #000000; stroke-width: 0.6"/>
      </g>
     </g>
    </g>
    <g id="ytick_4">
     <g id="line2d_17">
      <g>
       <use xlink:href="#m935bfaf6a7" x="80.868438" y="204.90765" style="stroke: #000000; stroke-width: 0.6"/>
      </g>
     </g>
     <g id="text_10">
      <!-- $\mathdefault{6\times10^{-4}}$ -->
      <g transform="translate(24.948438 209.466712) scale(0.12 -0.12)">
       <use xlink:href="#DejaVuSerif-36" transform="translate(0 0.7125)"/>
       <use xlink:href="#DejaVuSerif-d7" transform="translate(83.105469 0.7125)"/>
       <use xlink:href="#DejaVuSerif-31" transform="translate(186.376953 0.7125)"/>
       <use xlink:href="#DejaVuSerif-30" transform="translate(250 0.7125)"/>
       <use xlink:href="#DejaVuSerif-2212" transform="translate(314.531406 37.046875) scale(0.7)"/>
       <use xlink:href="#DejaVuSerif-34" transform="translate(373.18375 37.046875) scale(0.7)"/>
      </g>
     </g>
    </g>
    <g id="ytick_5">
     <g id="line2d_18">
      <g>
       <use xlink:href="#m935bfaf6a7" x="80.868438" y="155.607353" style="stroke: #000000; stroke-width: 0.6"/>
      </g>
     </g>
    </g>
    <g id="ytick_6">
     <g id="line2d_19">
      <g>
       <use xlink:href="#m935bfaf6a7" x="80.868438" y="112.901495" style="stroke: #000000; stroke-width: 0.6"/>
      </g>
     </g>
    </g>
    <g id="ytick_7">
     <g id="line2d_20">
      <g>
       <use xlink:href="#m935bfaf6a7" x="80.868438" y="75.232257" style="stroke: #000000; stroke-width: 0.6"/>
      </g>
     </g>
    </g>
    <g id="text_11">
     <!-- Relative Energy Drift -->
     <g transform="translate(17.837813 276.747969) rotate(-90) scale(0.14 -0.14)">
      <defs>
       <path id="DejaVuSerif-52" d="M 3066 2316 
Q 3284 2256 3442 2114 
Q 3600 1972 3725 1716 
L 4403 331 
L 4972 331 
L 4972 0 
L 3872 0 
L 3144 1484 
Q 2934 1916 2759 2042 
Q 2584 2169 2278 2169 
L 1581 2169 
L 1581 331 
L 2241 331 
L 2241 0 
L 353 0 
L 353 331 
L 947 331 
L 947 4331 
L 353 4331 
L 353 4666 
L 2719 4666 
Q 3400 4666 3770 4341 
Q 4141 4016 4141 3419 
Q 4141 2938 3870 2661 
Q 3600 2384 3066 2316 
z
M 1581 2503 
L 2503 2503 
Q 2975 2503 3200 2726 
Q 3425 2950 3425 3419 
Q 3425 3888 3200 4109 
Q 2975 4331 2503 4331 
L 1581 4331 
L 1581 2503 
z
" transform="scale(0.015625)"/>
       <path id="DejaVuSerif-6c" d="M 1313 331 
L 1856 331 
L 1856 0 
L 184 0 
L 184 331 
L 738 331 
L 738 4531 
L 184 4531 
L 184 4863 
L 1313 4863 
L 1313 331 
z
" transform="scale(0.015625)"/>
       <path id="DejaVuSerif-61" d="M 2547 1044 
L 2547 1747 
L 1806 1747 
Q 1378 1747 1168 1562 
Q 959 1378 959 997 
Q 959 650 1171 447 
Q 1384 244 1747 244 
Q 2106 244 2326 466 
Q 2547 688 2547 1044 
z
M 3122 2075 
L 3122 331 
L 3634 331 
L 3634 0 
L 2547 0 
L 2547 359 
Q 2356 128 2106 18 
Q 1856 -91 1522 -91 
Q 969 -91 644 203 
Q 319 497 319 997 
Q 319 1513 691 1797 
Q 1063 2081 1741 2081 
L 2547 2081 
L 2547 2309 
Q 2547 2688 2317 2895 
Q 2088 3103 1672 3103 
Q 1328 3103 1125 2947 
Q 922 2791 872 2484 
L 575 2484 
L 575 3156 
Q 875 3284 1158 3348 
Q 1441 3413 1709 3413 
Q 2400 3413 2761 3070 
Q 3122 2728 3122 2075 
z
" transform="scale(0.015625)"/>
       <path id="DejaVuSerif-76" d="M 1581 0 
L 359 2988 
L -19 2988 
L -19 3322 
L 1509 3322 
L 1509 2988 
L 978 2988 
L 1913 703 
L 2847 2988 
L 2350 2988 
L 2350 3322 
L 3597 3322 
L 3597 2988 
L 3225 2988 
L 2003 0 
L 1581 0 
z
" transform="scale(0.015625)"/>
       <path id="DejaVuSerif-45" d="M 353 0 
L 353 331 
L 947 331 
L 947 4331 
L 353 4331 
L 353 4666 
L 4109 4666 
L 4109 3628 
L 3725 3628 
L 3725 4281 
L 1581 4281 
L 1581 2719 
L 3109 2719 
L 3109 3303 
L 3494 3303 
L 3494 1753 
L 3109 1753 
L 3109 2338 
L 1581 2338 
L 1581 384 
L 3775 384 
L 3775 1038 
L 4159 1038 
L 4159 0 
L 353 0 
z
" transform="scale(0.015625)"/>
       <path id="DejaVuSerif-67" d="M 3359 2988 
L 3359 72 
Q 3359 -644 2965 -1033 
Q 2572 -1422 1844 -1422 
Q 1516 -1422 1216 -1362 
Q 916 -1303 641 -1184 
L 641 -488 
L 941 -488 
Q 997 -813 1206 -963 
Q 1416 -1113 1806 -1113 
Q 2313 -1113 2548 -827 
Q 2784 -541 2784 72 
L 2784 519 
Q 2616 206 2355 57 
Q 2094 -91 1709 -91 
Q 1097 -91 708 395 
Q 319 881 319 1663 
Q 319 2444 706 2928 
Q 1094 3413 1709 3413 
Q 2094 3413 2355 3264 
Q 2616 3116 2784 2803 
L 2784 3322 
L 3909 3322 
L 3909 2988 
L 3359 2988 
z
M 2784 1825 
Q 2784 2422 2554 2737 
Q 2325 3053 1888 3053 
Q 1444 3053 1217 2703 
Q 991 2353 991 1663 
Q 991 975 1217 622 
Q 1444 269 1888 269 
Q 2325 269 2554 583 
Q 2784 897 2784 1497 
L 2784 1825 
z
" transform="scale(0.015625)"/>
       <path id="DejaVuSerif-79" d="M 1381 -609 
L 1600 -56 
L 359 2988 
L -19 2988 
L -19 3322 
L 1509 3322 
L 1509 2988 
L 978 2988 
L 1913 703 
L 2847 2988 
L 2350 2988 
L 2350 3322 
L 3597 3322 
L 3597 2988 
L 3225 2988 
L 1703 -750 
Q 1547 -1138 1356 -1280 
Q 1166 -1422 819 -1422 
Q 672 -1422 517 -1397 
Q 363 -1372 206 -1325 
L 206 -691 
L 500 -691 
Q 519 -903 608 -995 
Q 697 -1088 884 -1088 
Q 1056 -1088 1161 -992 
Q 1266 -897 1381 -609 
z
" transform="scale(0.015625)"/>
       <path id="DejaVuSerif-44" d="M 1581 331 
L 2163 331 
Q 3072 331 3558 850 
Q 4044 1369 4044 2338 
Q 4044 3306 3559 3818 
Q 3075 4331 2163 4331 
L 1581 4331 
L 1581 331 
z
M 353 0 
L 353 331 
L 947 331 
L 947 4331 
L 353 4331 
L 353 4666 
L 2209 4666 
Q 3416 4666 4089 4050 
Q 4763 3434 4763 2338 
Q 4763 1238 4088 619 
Q 3413 0 2209 0 
L 353 0 
z
" transform="scale(0.015625)"/>
       <path id="DejaVuSerif-66" d="M 2753 4078 
L 2450 4078 
Q 2447 4313 2317 4434 
Q 2188 4556 1941 4556 
Q 1619 4556 1487 4379 
Q 1356 4203 1356 3750 
L 1356 3322 
L 2284 3322 
L 2284 2988 
L 1356 2988 
L 1356 331 
L 2094 331 
L 2094 0 
L 231 0 
L 231 331 
L 781 331 
L 781 2988 
L 231 2988 
L 231 3322 
L 781 3322 
L 781 3738 
Q 781 4294 1070 4578 
Q 1359 4863 1919 4863 
Q 2128 4863 2337 4825 
Q 2547 4788 2753 4709 
L 2753 4078 
z
" transform="scale(0.015625)"/>
      </defs>
      <use xlink:href="#DejaVuSerif-52"/>
      <use xlink:href="#DejaVuSerif-65" transform="translate(75.292969 0)"/>
      <use xlink:href="#DejaVuSerif-6c" transform="translate(134.472656 0)"/>
      <use xlink:href="#DejaVuSerif-61" transform="translate(166.455078 0)"/>
      <use xlink:href="#DejaVuSerif-74" transform="translate(226.074219 0)"/>
      <use xlink:href="#DejaVuSerif-69" transform="translate(266.259766 0)"/>
      <use xlink:href="#DejaVuSerif-76" transform="translate(298.242188 0)"/>
      <use xlink:href="#DejaVuSerif-65" transform="translate(354.736328 0)"/>
      <use xlink:href="#DejaVuSerif-20" transform="translate(413.916016 0)"/>
      <use xlink:href="#DejaVuSerif-45" transform="translate(445.703125 0)"/>
      <use xlink:href="#DejaVuSerif-6e" transform="translate(518.701172 0)"/>
      <use xlink:href="#DejaVuSerif-65" transform="translate(583.105469 0)"/>
      <use xlink:href="#DejaVuSerif-72" transform="translate(642.285156 0)"/>
      <use xlink:href="#DejaVuSerif-67" transform="translate(690.087891 0)"/>
      <use xlink:href="#DejaVuSerif-79" transform="translate(754.101562 0)"/>
      <use xlink:href="#DejaVuSerif-20" transform="translate(810.595703 0)"/>
      <use xlink:href="#DejaVuSerif-44" transform="translate(842.382812 0)"/>
      <use xlink:href="#DejaVuSerif-72" transform="translate(922.558594 0)"/>
      <use xlink:href="#DejaVuSerif-69" transform="translate(970.361328 0)"/>
      <use xlink:href="#DejaVuSerif-66" transform="translate(1002.34375 0)"/>
      <use xlink:href="#DejaVuSerif-74" transform="translate(1039.355469 0)"/>
     </g>
    </g>
   </g>
   <g id="line2d_21">
    <path d="M 102.538675 41.341136 
L 102.972514 41.595748 
L 103.406353 42.279378 
L 104.27403 42.346423 
L 104.707868 42.935966 
L 105.141707 43.98378 
L 105.575546 43.854131 
L 106.443223 44.426445 
L 106.877061 45.081373 
L 107.3109 44.754307 
L 107.744739 45.589921 
L 108.612416 46.210457 
L 109.046254 46.349436 
L 109.480093 47.120807 
L 109.913932 46.951233 
L 110.34777 46.589653 
L 110.781609 47.432177 
L 111.649286 48.235824 
L 112.083125 49.018056 
L 112.950802 48.977478 
L 113.38464 49.555214 
L 113.818479 49.479417 
L 114.252318 50.252455 
L 114.686156 50.419413 
L 115.553833 51.307881 
L 115.987672 51.660737 
L 116.421511 51.738567 
L 116.855349 52.320254 
L 117.289188 52.178137 
L 117.723026 53.151419 
L 118.156865 53.540922 
L 118.590704 52.98869 
L 119.024542 53.831855 
L 120.326058 54.713116 
L 120.759897 55.435754 
L 121.193735 55.361981 
L 122.495251 56.642866 
L 122.92909 56.644877 
L 123.362928 57.138278 
L 123.796767 56.873531 
L 124.230605 57.73357 
L 124.664444 58.010013 
L 125.098283 57.512698 
L 125.532121 58.661125 
L 125.96596 58.120784 
L 126.399798 59.394045 
L 126.833637 59.922247 
L 127.267476 59.992394 
L 127.701314 60.559237 
L 128.568991 60.529542 
L 129.00283 61.165138 
L 129.436669 61.473453 
L 129.870507 61.363732 
L 130.304346 61.833485 
L 130.738184 61.701095 
L 131.172023 62.375061 
L 131.605862 62.787903 
L 132.0397 63.783592 
L 132.473539 63.224298 
L 132.907377 64.015927 
L 133.775055 64.377212 
L 134.208893 64.797313 
L 134.642732 65.62888 
L 135.07657 65.487447 
L 135.510409 65.995928 
L 135.944248 66.948588 
L 136.378086 66.37735 
L 136.811925 66.902592 
L 137.245763 67.055367 
L 137.679602 66.804932 
L 138.547279 68.822944 
L 138.981118 68.8244 
L 139.414956 69.365842 
L 139.848795 69.050785 
L 140.716472 69.646566 
L 141.150311 70.43701 
L 141.584149 69.925304 
L 142.017988 70.795852 
L 142.451827 71.091139 
L 142.885665 70.56348 
L 143.319504 71.614542 
L 143.753342 71.726529 
L 144.62102 72.872265 
L 145.054858 72.885044 
L 146.356374 73.816968 
L 146.790213 73.598272 
L 147.224051 74.41402 
L 147.65789 74.906566 
L 149.393244 76.068925 
L 149.827083 76.576108 
L 150.69476 77.03139 
L 151.128599 77.669395 
L 151.562437 77.982659 
L 151.996276 77.692909 
L 152.430114 77.808365 
L 152.863953 78.631087 
L 153.297791 78.927743 
L 154.165469 79.847872 
L 154.599307 79.728102 
L 155.033146 80.30174 
L 155.466984 79.969137 
L 155.900823 81.774439 
L 156.334662 81.342991 
L 156.7685 81.430503 
L 157.202339 82.220455 
L 157.636177 82.305515 
L 158.070016 82.770097 
L 158.937693 83.012603 
L 159.371532 83.484965 
L 159.80537 84.178897 
L 160.239209 84.296273 
L 160.673048 84.107513 
L 161.106886 84.278365 
L 161.974563 85.790712 
L 162.408402 85.703287 
L 162.842241 85.830223 
L 163.276079 86.635006 
L 163.709918 86.765824 
L 164.143756 86.638208 
L 165.011434 88.418841 
L 165.445272 88.378163 
L 165.879111 88.059186 
L 166.746788 89.38668 
L 167.180627 89.166096 
L 167.614465 90.109221 
L 168.048304 89.524898 
L 168.482142 90.202996 
L 168.915981 91.165304 
L 169.34982 90.999948 
L 169.783658 91.808753 
L 170.651335 90.967572 
L 171.519013 92.450036 
L 171.952851 92.737566 
L 172.38669 92.586866 
L 172.820528 93.571893 
L 173.254367 93.792829 
L 173.688206 93.542452 
L 174.122044 94.182364 
L 174.555883 94.603794 
L 174.989721 94.403924 
L 176.725076 96.735784 
L 177.158914 96.193161 
L 177.592753 97.474746 
L 178.026592 97.226472 
L 178.46043 97.336699 
L 179.328107 98.527891 
L 179.761946 98.289435 
L 180.195785 98.545326 
L 180.629623 98.524119 
L 181.4973 100.133475 
L 181.931139 99.971616 
L 182.798816 101.557737 
L 183.232655 101.423274 
L 183.666493 101.544464 
L 184.100332 101.520888 
L 184.534171 102.388131 
L 184.968009 102.059367 
L 185.401848 103.216784 
L 185.835686 103.884904 
L 186.269525 103.069677 
L 186.703364 103.605508 
L 187.137202 104.620435 
L 187.571041 104.01547 
L 188.004879 104.408484 
L 188.438718 104.460859 
L 189.740234 106.238987 
L 190.174072 106.714365 
L 190.607911 106.03198 
L 191.475588 107.105301 
L 191.909427 107.444955 
L 192.343265 107.276417 
L 193.210943 108.812496 
L 193.644781 108.68524 
L 194.07862 108.770273 
L 194.512458 109.572955 
L 194.946297 109.83702 
L 195.380136 109.637205 
L 195.813974 110.36482 
L 196.247813 110.40293 
L 197.549329 111.974504 
L 197.983167 111.885467 
L 198.417006 112.7228 
L 198.850844 112.526473 
L 199.284683 112.999596 
L 199.718522 112.600795 
L 200.15236 113.057376 
L 200.586199 113.847106 
L 201.020037 114.878045 
L 201.453876 114.891869 
L 201.887715 114.741054 
L 202.321553 114.963834 
L 202.755392 115.953509 
L 203.18923 116.029106 
L 203.623069 115.095583 
L 204.056908 117.037611 
L 204.490746 117.002554 
L 204.924585 116.431749 
L 206.2261 117.965796 
L 206.659939 118.747994 
L 207.093778 118.934198 
L 207.527616 119.337227 
L 208.395293 118.946565 
L 208.829132 119.674015 
L 209.262971 119.986446 
L 210.130648 121.246398 
L 210.564486 121.661168 
L 210.998325 121.127764 
L 211.432164 122.000676 
L 211.866002 122.450105 
L 212.733679 122.847325 
L 214.035195 123.841954 
L 214.469034 123.897611 
L 214.902872 124.646466 
L 215.336711 125.166863 
L 216.638227 125.279577 
L 217.072065 125.617958 
L 217.505904 126.433005 
L 217.939743 126.347278 
L 218.373581 127.521696 
L 218.80742 126.849236 
L 220.108936 128.643267 
L 220.542774 128.250582 
L 220.976613 128.556299 
L 221.410451 129.23061 
L 222.278129 130.200806 
L 222.711967 129.878266 
L 223.145806 131.255558 
L 223.579644 130.867453 
L 224.013483 130.704377 
L 224.447322 131.364079 
L 224.88116 131.816768 
L 225.314999 131.80165 
L 225.748837 132.866759 
L 226.182676 133.036879 
L 226.616515 133.408387 
L 227.050353 133.2961 
L 227.484192 134.058321 
L 227.91803 133.577686 
L 228.351869 134.459584 
L 228.785708 134.613927 
L 229.219546 134.602022 
L 229.653385 135.57885 
L 230.087223 136.025464 
L 230.521062 136.75742 
L 230.954901 136.556199 
L 231.388739 137.100891 
L 231.822578 136.696608 
L 232.256416 137.987544 
L 232.690255 137.483449 
L 233.124094 137.655668 
L 233.557932 138.648976 
L 233.991771 138.069195 
L 234.425609 138.625636 
L 234.859448 139.887576 
L 235.293287 138.565979 
L 235.727125 140.172523 
L 236.160964 140.294483 
L 236.594802 140.810541 
L 237.028641 140.703259 
L 237.46248 141.169191 
L 237.896318 140.98576 
L 238.330157 141.432532 
L 238.763995 141.106963 
L 239.197834 142.15309 
L 239.631673 142.590284 
L 240.065511 143.301813 
L 240.49935 142.782608 
L 240.933188 143.26292 
L 241.367027 143.372103 
L 241.800866 143.948848 
L 242.234704 144.78544 
L 242.668543 144.491005 
L 243.102381 144.918551 
L 243.53622 145.668327 
L 243.970059 146.121989 
L 244.403897 146.169398 
L 244.837736 145.950499 
L 245.271574 147.222405 
L 245.705413 147.88374 
L 246.57309 147.739492 
L 247.006929 148.187094 
L 247.440767 148.445304 
L 247.874606 149.061945 
L 248.308445 148.946421 
L 248.742283 149.120957 
L 249.176122 149.881733 
L 249.60996 149.460223 
L 250.043799 150.105691 
L 250.477638 149.738572 
L 251.345315 152.540999 
L 251.779153 151.802651 
L 252.212992 152.735911 
L 252.646831 151.911255 
L 253.080669 152.319762 
L 253.948346 153.514579 
L 254.382185 153.808678 
L 254.816024 154.613341 
L 255.249862 154.698327 
L 255.683701 155.06023 
L 256.117539 154.950389 
L 256.551378 154.503339 
L 257.852894 156.38725 
L 258.286732 156.413627 
L 258.720571 156.789297 
L 259.154409 157.875246 
L 259.588248 156.488769 
L 260.022087 158.020039 
L 260.455925 157.540741 
L 260.889764 158.422959 
L 261.323602 158.152046 
L 261.757441 159.251037 
L 262.19128 159.680529 
L 262.625118 159.241231 
L 263.058957 160.125616 
L 263.492795 160.442095 
L 263.926634 160.148653 
L 264.360473 161.523881 
L 264.794311 161.540813 
L 265.661988 162.275955 
L 266.095827 162.372021 
L 266.529666 162.096746 
L 266.963504 163.215792 
L 267.397343 163.412504 
L 267.831181 163.216192 
L 268.26502 163.354143 
L 268.698859 164.198229 
L 269.132697 163.549674 
L 269.566536 164.982378 
L 270.000374 164.763237 
L 270.434213 165.581341 
L 270.868052 165.961955 
L 271.30189 165.874785 
L 271.735729 166.22098 
L 272.169567 166.758861 
L 272.603406 167.764796 
L 273.037245 167.194732 
L 273.904922 167.943112 
L 274.33876 168.091493 
L 274.772599 169.278861 
L 275.206438 169.067127 
L 275.640276 169.642229 
L 276.074115 168.950729 
L 276.507953 169.658069 
L 276.941792 169.615172 
L 277.375631 170.903063 
L 277.809469 171.296851 
L 278.243308 171.033244 
L 278.677146 171.767737 
L 279.110985 171.698502 
L 279.544824 170.731682 
L 279.978662 173.298401 
L 280.412501 172.932854 
L 280.846339 173.901426 
L 281.280178 172.989583 
L 281.714017 173.869134 
L 282.147855 173.884592 
L 282.581694 174.531505 
L 283.015532 175.520099 
L 283.449371 175.654011 
L 283.88321 174.773397 
L 284.317048 175.792817 
L 284.750887 175.53381 
L 285.618564 176.580227 
L 286.052403 176.228308 
L 286.486241 176.768443 
L 286.92008 178.164697 
L 287.353918 178.551724 
L 287.787757 178.022468 
L 288.655434 179.339987 
L 289.089273 178.733493 
L 289.523111 179.631035 
L 289.95695 179.327243 
L 290.390789 179.921997 
L 291.692304 182.207646 
L 292.126143 181.136521 
L 292.559982 181.288228 
L 292.99382 181.78755 
L 293.427659 183.194834 
L 293.861497 182.230926 
L 294.729175 183.165089 
L 296.03069 184.529091 
L 296.464529 184.964729 
L 296.898368 186.296039 
L 297.332206 185.557511 
L 297.766045 186.002374 
L 298.199883 184.864068 
L 298.633722 186.411325 
L 299.501399 187.122802 
L 299.935238 187.113905 
L 300.369076 186.782641 
L 300.802915 188.068409 
L 301.236754 188.495892 
L 301.670592 188.039701 
L 302.104431 188.668401 
L 302.538269 188.302505 
L 303.405947 190.030448 
L 303.839785 190.080344 
L 304.273624 189.844001 
L 304.707462 190.611682 
L 305.141301 191.149322 
L 306.008978 192.737908 
L 306.442817 192.028397 
L 306.876655 192.287606 
L 307.744333 193.559042 
L 308.178171 193.064729 
L 308.61201 193.729619 
L 309.045848 194.096149 
L 309.479687 195.002271 
L 309.913526 194.379787 
L 310.347364 195.396228 
L 310.781203 194.533645 
L 311.215041 195.657491 
L 312.082718 195.708935 
L 312.516557 196.780923 
L 312.950396 195.823376 
L 313.384234 196.823383 
L 313.818073 197.478237 
L 314.251911 197.896919 
L 314.68575 197.900005 
L 315.119589 198.405694 
L 315.553427 199.146863 
L 315.987266 198.486655 
L 316.854943 199.627797 
L 317.288782 199.445783 
L 317.72262 200.858898 
L 318.156459 200.837893 
L 318.590297 201.000207 
L 319.024136 200.980823 
L 319.457975 202.182692 
L 319.891813 202.179541 
L 320.325652 202.300049 
L 320.75949 202.723255 
L 322.061006 204.743496 
L 322.494845 203.599776 
L 324.230199 205.784538 
L 325.097876 204.244918 
L 325.531715 206.089969 
L 325.965554 206.925629 
L 326.399392 205.760751 
L 326.833231 205.900983 
L 327.267069 206.34431 
L 327.700908 207.418347 
L 328.134747 207.531495 
L 328.568585 208.794018 
L 329.002424 208.867576 
L 329.436262 209.113169 
L 329.870101 209.850367 
L 330.30394 209.008234 
L 330.737778 209.072215 
L 331.605455 210.536907 
L 332.039294 210.323337 
L 332.473133 211.830561 
L 332.906971 210.909235 
L 333.34081 211.228439 
L 333.774648 212.18281 
L 334.208487 212.503232 
L 334.642326 212.497225 
L 335.076164 214.001345 
L 335.510003 213.531155 
L 335.943841 213.800924 
L 336.37768 215.062449 
L 336.811519 215.142385 
L 337.245357 213.935015 
L 337.679196 215.891805 
L 338.113034 215.968763 
L 338.546873 214.986852 
L 338.980712 216.035677 
L 339.41455 217.849858 
L 339.848389 215.938991 
L 340.282227 217.632835 
L 340.716066 216.918965 
L 341.149905 218.280687 
L 341.583743 217.704902 
L 342.017582 218.219884 
L 342.885259 218.848239 
L 343.319098 219.584432 
L 343.752936 219.764002 
L 344.186775 219.759102 
L 344.620613 220.85384 
L 345.488291 221.348785 
L 345.922129 222.016173 
L 346.355968 221.226575 
L 347.223645 222.513694 
L 347.657484 222.010737 
L 348.091322 223.381945 
L 348.525161 223.201909 
L 348.958999 222.749105 
L 349.392838 223.464875 
L 349.826677 223.05841 
L 350.260515 224.194143 
L 350.694354 223.402407 
L 351.128192 224.627879 
L 351.562031 225.493035 
L 351.99587 225.792893 
L 352.429708 225.305111 
L 352.863547 227.642455 
L 353.297385 226.534543 
L 353.731224 226.751125 
L 354.165063 228.035849 
L 354.598901 228.590755 
L 355.03274 227.748073 
L 355.466578 228.093507 
L 355.900417 228.944214 
L 356.334256 228.141103 
L 356.768094 228.584409 
L 357.201933 229.932788 
L 357.635771 229.795603 
L 358.06961 229.807996 
L 358.503449 230.017648 
L 358.937287 229.734138 
L 359.371126 230.0262 
L 360.238803 231.66152 
L 360.672642 231.400284 
L 361.10648 232.562883 
L 361.974157 233.440735 
L 362.841835 233.265159 
L 363.275673 234.475916 
L 363.709512 233.920054 
L 364.14335 234.681413 
L 364.577189 236.1931 
L 365.011027 235.946734 
L 365.444866 236.960573 
L 365.878705 235.074057 
L 366.312543 235.659285 
L 366.746382 236.473143 
L 367.18022 236.742951 
L 367.614059 236.838211 
L 368.047898 237.098879 
L 368.481736 237.102666 
L 368.915575 238.760066 
L 369.349413 238.284271 
L 369.783252 238.403758 
L 370.217091 239.260183 
L 370.650929 239.12653 
L 371.084768 239.171046 
L 371.518606 238.960671 
L 371.952445 240.144223 
L 372.386284 240.357843 
L 372.820122 241.852717 
L 373.253961 241.139153 
L 373.687799 242.192393 
L 374.555477 241.56972 
L 374.989315 243.545659 
L 375.423154 242.764763 
L 375.856992 245.544107 
L 376.290831 243.684999 
L 376.72467 244.423746 
L 377.158508 244.333263 
L 377.592347 243.481593 
L 378.026185 245.73497 
L 378.460024 244.975845 
L 378.893863 245.1799 
L 379.327701 246.361314 
L 379.76154 245.712163 
L 380.195378 246.700632 
L 380.629217 245.64256 
L 381.496894 247.68886 
L 381.930733 246.663945 
L 383.232249 249.532 
L 383.666087 249.566792 
L 384.099926 249.321333 
L 384.533764 248.947353 
L 384.967603 251.174692 
L 385.401442 250.320925 
L 385.83528 251.257172 
L 386.269119 250.733065 
L 386.702957 250.712012 
L 387.136796 250.253168 
L 387.570635 251.189806 
L 388.004473 252.505348 
L 388.438312 251.886625 
L 388.87215 253.628499 
L 389.305989 252.663605 
L 389.739828 253.006877 
L 390.173666 253.082825 
L 390.607505 253.650563 
L 391.041343 254.469373 
L 391.475182 253.583623 
L 391.909021 255.337049 
L 392.342859 254.863444 
L 392.776698 256.142962 
L 393.210536 256.040475 
L 393.644375 257.039788 
L 394.078214 256.389383 
L 394.512052 257.160852 
L 394.945891 257.27677 
L 395.379729 258.301871 
L 395.813568 257.016817 
L 396.247407 257.639861 
L 396.681245 258.559316 
L 397.115084 258.337087 
L 397.548922 259.111976 
L 397.982761 260.220277 
L 398.850438 260.447879 
L 399.284277 261.178148 
L 399.718115 262.45767 
L 400.585793 260.418253 
L 401.019631 262.494441 
L 401.45347 262.72744 
L 401.887308 262.123807 
L 402.321147 263.161275 
L 402.754986 263.580193 
L 403.188824 262.369615 
L 403.622663 263.943384 
L 404.056501 263.659284 
L 404.49034 264.340363 
L 404.924179 265.48005 
L 405.358017 263.995783 
L 405.791856 265.868402 
L 406.225694 265.498777 
L 406.659533 266.104152 
L 407.093372 266.412745 
L 407.52721 265.895462 
L 408.394887 267.670334 
L 408.828726 267.865547 
L 409.262565 267.270512 
L 409.696403 267.376927 
L 410.130242 268.3467 
L 410.56408 268.396499 
L 410.997919 269.508364 
L 411.431758 269.764329 
L 411.865596 269.807391 
L 412.299435 269.648262 
L 412.733273 270.335906 
L 413.167112 270.462966 
L 413.600951 271.849213 
L 414.034789 269.864947 
L 414.468628 272.165442 
L 414.902466 272.093388 
L 415.336305 272.553246 
L 416.203982 273.05445 
L 416.637821 273.014491 
L 417.071659 273.169295 
L 417.505498 273.030222 
L 417.939336 274.471836 
L 418.373175 273.769258 
L 418.807014 275.272501 
L 419.240852 275.074237 
L 419.674691 274.371981 
L 420.108529 274.500364 
L 420.542368 276.110426 
L 421.410045 276.822431 
L 421.843884 277.295317 
L 422.277722 277.575955 
L 422.711561 278.46861 
L 423.1454 278.427225 
L 423.579238 279.348441 
L 424.013077 277.5666 
L 424.446915 279.539944 
L 424.880754 279.335282 
L 425.314593 279.345861 
L 426.18227 280.605487 
L 426.616108 280.917515 
L 427.049947 280.430167 
L 427.483786 280.870351 
L 427.917624 282.572633 
L 428.351463 282.393298 
L 428.785301 282.781937 
L 429.21914 282.551697 
L 429.652979 283.599362 
L 430.086817 283.437497 
L 430.520656 282.694451 
L 430.954494 283.989554 
L 431.388333 284.546651 
L 431.822172 284.440064 
L 432.25601 284.796944 
L 432.689849 284.961482 
L 433.123687 283.608151 
L 433.557526 285.941616 
L 433.991365 286.29131 
L 434.859042 286.576877 
L 435.29288 285.838775 
L 435.726719 286.678771 
L 436.160558 286.5473 
L 436.594396 287.854547 
L 437.462073 288.435577 
L 437.895912 289.22577 
L 438.329751 289.173756 
L 438.763589 290.142326 
L 439.197428 289.608121 
L 439.631266 289.778184 
L 440.065105 291.292313 
L 440.498944 290.875406 
L 440.932782 290.936238 
L 441.366621 290.656612 
L 442.668137 292.941244 
L 443.101975 294.753206 
L 443.535814 293.57882 
L 443.969652 294.232778 
L 444.403491 293.787998 
L 444.83733 293.922603 
L 445.271168 294.19387 
L 445.705007 295.493821 
L 446.138845 294.865219 
L 446.572684 295.041708 
L 447.006523 294.933459 
L 447.8742 296.831511 
L 448.308038 297.038071 
L 448.741877 297.482249 
L 449.175716 298.400005 
L 449.609554 296.93335 
L 450.043393 297.99749 
L 450.477231 297.440265 
L 450.91107 297.612271 
L 451.344909 299.486001 
L 451.778747 299.35633 
L 452.212586 300.183768 
L 452.646424 300.558997 
L 453.080263 299.759293 
L 453.514102 299.938967 
L 453.94794 301.565384 
L 454.381779 300.480613 
L 454.815617 301.130054 
L 455.683295 303.413705 
L 456.117133 302.828613 
L 456.550972 302.502205 
L 456.98481 303.742001 
L 457.418649 304.122657 
L 457.852488 303.815061 
L 458.286326 305.500349 
L 458.720165 304.454983 
L 459.154003 306.005522 
L 459.587842 304.530192 
L 460.021681 304.841638 
L 460.455519 307.282687 
L 461.323196 305.780745 
L 462.190874 306.955977 
L 462.624712 307.171784 
L 463.058551 307.871428 
L 463.492389 308.811214 
L 463.926228 306.785266 
L 464.793905 309.994495 
L 465.227744 309.934445 
L 466.095421 308.26978 
L 466.52926 310.277656 
L 466.963098 310.512675 
L 467.396937 309.715487 
L 467.830775 311.054361 
L 468.698453 310.363765 
L 469.56613 312.520566 
L 469.999968 312.077842 
L 470.433807 312.409811 
L 470.867645 313.880907 
L 471.301484 313.79475 
L 471.735323 314.927599 
L 472.169161 315.51828 
L 472.603 313.816728 
L 473.036838 313.106504 
L 473.470677 314.614511 
L 473.904516 314.953726 
L 474.338354 315.14312 
L 474.772193 316.679644 
L 475.206031 316.445487 
L 475.63987 316.56036 
L 476.073709 317.067092 
L 476.507547 318.159225 
L 477.375224 318.642676 
L 477.809063 318.579712 
L 478.242902 318.83969 
L 478.67674 319.727639 
L 479.110579 320.969572 
L 479.544417 321.217147 
L 479.978256 319.944162 
L 480.412095 320.577025 
L 480.845933 318.709515 
L 481.279772 321.398658 
L 481.71361 321.011637 
L 482.147449 322.979983 
L 482.581288 323.467752 
L 483.015126 321.348571 
L 483.448965 322.990274 
L 483.882803 323.253066 
L 484.316642 322.846933 
L 484.750481 323.098662 
L 485.184319 325.546239 
L 486.051996 323.689297 
L 486.485835 324.127895 
L 486.919674 326.080071 
L 487.353512 325.436022 
L 487.787351 326.081007 
L 488.221189 326.998653 
L 488.655028 325.401004 
L 489.088867 326.768387 
L 489.522705 326.648252 
L 489.956544 328.613092 
L 490.390382 328.779736 
L 490.824221 327.198566 
L 491.25806 326.719959 
L 491.691898 329.147014 
L 492.125737 329.179276 
L 492.559575 330.142912 
L 492.993414 330.354663 
L 493.427253 331.022686 
L 493.861091 329.128309 
L 494.29493 329.20916 
L 494.728768 330.129017 
L 495.162607 331.622953 
L 495.596446 331.349081 
L 496.030284 331.713426 
L 496.464123 333.076872 
L 496.897961 333.304419 
L 497.3318 332.337434 
L 497.765639 332.656551 
L 498.199477 334.117894 
L 498.633316 333.325142 
L 499.067154 333.27487 
L 499.500993 332.895626 
L 499.934832 336.999741 
L 500.36867 334.917066 
L 501.236347 335.25128 
L 501.670186 337.962157 
L 502.104025 336.510229 
L 502.537863 337.654423 
L 502.971702 335.764893 
L 503.40554 337.413861 
L 503.839379 336.308452 
L 504.273218 338.179504 
L 504.707056 338.416353 
L 505.140895 339.180122 
L 505.574733 338.398246 
L 506.008572 339.696806 
L 506.442411 338.350946 
L 506.876249 339.824111 
L 507.310088 338.890814 
L 507.743926 341.35323 
L 508.177765 340.801908 
L 508.611604 342.269884 
L 509.045442 342.767763 
L 509.479281 341.522744 
L 509.913119 342.234974 
L 510.346958 342.34636 
L 510.780797 343.397668 
L 511.214635 343.645999 
L 511.648474 343.295295 
L 512.082312 344.03496 
L 512.516151 345.718091 
L 512.94999 345.866053 
L 513.383828 343.477797 
L 513.817667 345.610076 
L 514.251505 344.74276 
L 514.685344 346.043821 
L 515.119183 344.48542 
L 515.553021 347.433163 
L 515.98686 346.289628 
L 516.420698 347.290141 
L 516.854537 347.590328 
L 517.288376 347.136543 
L 517.722214 347.360556 
L 518.156053 349.675271 
L 518.589891 348.34086 
L 519.457569 349.215377 
L 519.891407 349.542627 
L 520.759084 350.725628 
L 521.192923 351.24278 
L 521.626762 349.658009 
L 522.494439 352.634059 
L 522.928277 351.433828 
L 523.362116 351.805802 
L 523.795954 352.484896 
L 524.229793 351.637837 
L 524.663632 352.588208 
L 525.09747 351.806287 
L 525.531309 354.271281 
L 525.965147 352.334195 
L 526.398986 353.911918 
L 526.832825 354.948509 
L 527.266663 354.953393 
L 527.700502 356.174553 
L 528.13434 357.808214 
L 528.568179 356.219906 
L 529.002018 357.52787 
L 529.435856 356.046026 
L 529.869695 355.276078 
L 530.303533 358.105828 
L 530.737372 357.529102 
L 531.171211 357.460437 
L 531.605049 358.174986 
L 532.038888 358.169071 
L 532.472726 359.052344 
L 532.906565 358.734395 
L 533.340404 358.064319 
L 533.774242 359.255675 
L 534.208081 358.999844 
L 534.641919 361.013864 
L 535.075758 359.807003 
L 535.509597 360.062612 
L 535.943435 360.93284 
L 535.943435 360.93284 
" clip-path="url(#p0483a54a0f)" style="fill: none; stroke: #ff0000; stroke-opacity: 0.8; stroke-width: 2; stroke-linecap: square"/>
   </g>
   <g id="patch_3">
    <path d="M 80.868438 376.9975 
L 80.868438 25.3575 
" style="fill: none; stroke: #000000; stroke-width: 0.8; stroke-linejoin: miter; stroke-linecap: square"/>
   </g>
   <g id="patch_4">
    <path d="M 557.613673 376.9975 
L 557.613673 25.3575 
" style="fill: none; stroke: #000000; stroke-width: 0.8; stroke-linejoin: miter; stroke-linecap: square"/>
   </g>
   <g id="patch_5">
    <path d="M 80.868438 376.9975 
L 557.613673 376.9975 
" style="fill: none; stroke: #000000; stroke-width: 0.8; stroke-linejoin: miter; stroke-linecap: square"/>
   </g>
   <g id="patch_6">
    <path d="M 80.868438 25.3575 
L 557.613673 25.3575 
" style="fill: none; stroke: #000000; stroke-width: 0.8; stroke-linejoin: miter; stroke-linecap: square"/>
   </g>
   <g id="text_12">
    <!-- Energy Drift vs Time -->
    <g transform="translate(234.607305 19.3575) scale(0.16 -0.16)">
     <use xlink:href="#DejaVuSerif-45"/>
     <use xlink:href="#DejaVuSerif-6e" transform="translate(72.998047 0)"/>
     <use xlink:href="#DejaVuSerif-65" transform="translate(137.402344 0)"/>
     <use xlink:href="#DejaVuSerif-72" transform="translate(196.582031 0)"/>
     <use xlink:href="#DejaVuSerif-67" transform="translate(244.384766 0)"/>
     <use xlink:href="#DejaVuSerif-79" transform="translate(308.398438 0)"/>
     <use xlink:href="#DejaVuSerif-20" transform="translate(364.892578 0)"/>
     <use xlink:href="#DejaVuSerif-44" transform="translate(396.679688 0)"/>
     <use xlink:href="#DejaVuSerif-72" transform="translate(476.855469 0)"/>
     <use xlink:href="#DejaVuSerif-69" transform="translate(524.658203 0)"/>
     <use xlink:href="#DejaVuSerif-66" transform="translate(556.640625 0)"/>
     <use xlink:href="#DejaVuSerif-74" transform="translate(593.652344 0)"/>
     <use xlink:href="#DejaVuSerif-20" transform="translate(633.837891 0)"/>
     <use xlink:href="#DejaVuSerif-76" transform="translate(665.625 0)"/>
     <use xlink:href="#DejaVuSerif-73" transform="translate(722.119141 0)"/>
     <use xlink:href="#DejaVuSerif-20" transform="translate(773.4375 0)"/>
     <use xlink:href="#DejaVuSerif-54" transform="translate(805.224609 0)"/>
     <use xlink:href="#DejaVuSerif-69" transform="translate(871.923828 0)"/>
     <use xlink:href="#DejaVuSerif-6d" transform="translate(903.90625 0)"/>
     <use xlink:href="#DejaVuSerif-65" transform="translate(998.730469 0)"/>
    </g>
   </g>
  </g>
 </g>
 <defs>
  <clipPath id="p0483a54a0f">
   <rect x="80.868438" y="25.3575" width="476.745236" height="351.64"/>
  </clipPath>
 </defs>
</svg>
