<?xml version="1.0" encoding="utf-8" standalone="no"?>
<!DOCTYPE svg PUBLIC "-//W3C//DTD SVG 1.1//EN"
  "http://www.w3.org/Graphics/SVG/1.1/DTD/svg11.dtd">
<svg xmlns:xlink="http://www.w3.org/1999/xlink" width="565.062187pt" height="420.133125pt" viewBox="0 0 565.062187 420.133125" xmlns="http://www.w3.org/2000/svg" version="1.1">
 <metadata>
  <rdf:RDF xmlns:dc="http://purl.org/dc/elements/1.1/" xmlns:cc="http://creativecommons.org/ns#" xmlns:rdf="http://www.w3.org/1999/02/22-rdf-syntax-ns#">
   <cc:Work>
    <dc:type rdf:resource="http://purl.org/dc/dcmitype/StillImage"/>
    <dc:date>2025-12-17T18:32:46.544287</dc:date>
    <dc:format>image/svg+xml</dc:format>
    <dc:creator>
     <cc:Agent>
      <dc:title>Matplotlib v3.10.5, https://matplotlib.org/</dc:title>
     </cc:Agent>
    </dc:creator>
   </cc:Work>
  </rdf:RDF>
 </metadata>
 <defs>
  <style type="text/css">*{stroke-linejoin: round; stroke-linecap: butt}</style>
 </defs>
 <g id="figure_1">
  <g id="patch_1">
   <path d="M 0 420.133125 
L 565.062187 420.133125 
L 565.062187 0 
L 0 0 
z
" style="fill: #ffffff"/>
  </g>
  <g id="axes_1">
   <g id="patch_2">
    <path d="M 66.302188 376.77 
L 557.862188 376.77 
L 557.862188 25.13 
L 66.302188 25.13 
z
" style="fill: #ffffff"/>
   </g>
   <g id="matplotlib.axis_1">
    <g id="xtick_1">
     <g id="line2d_1">
      <path d="M 88.645824 376.77 
L 88.645824 25.13 
" clip-path="url(#p2842e525f6)" style="fill: none; stroke: #b0b0b0; stroke-opacity: 0.3; stroke-width: 0.8; stroke-linecap: square"/>
     </g>
     <g id="line2d_2">
      <defs>
       <path id="m0026b25b81" d="M 0 0 
L 0 3.5 
" style="stroke: #000000; stroke-width: 0.8"/>
      </defs>
      <g>
       <use xlink:href="#m0026b25b81" x="88.645824" y="376.77" style="stroke: #000000; stroke-width: 0.8"/>
      </g>
     </g>
     <g id="text_1">
      <!-- 0 -->
      <g transform="translate(84.828324 392.888125) scale(0.12 -0.12)">
       <defs>
        <path id="DejaVuSerif-30" d="M 2034 219 
Q 2513 219 2750 744 
Q 2988 1269 2988 2328 
Q 2988 3391 2750 3916 
Q 2513 4441 2034 4441 
Q 1556 4441 1318 3916 
Q 1081 3391 1081 2328 
Q 1081 1269 1318 744 
Q 1556 219 2034 219 
z
M 2034 -91 
Q 1275 -91 848 546 
Q 422 1184 422 2328 
Q 422 3475 848 4112 
Q 1275 4750 2034 4750 
Q 2797 4750 3222 4112 
Q 3647 3475 3647 2328 
Q 3647 1184 3222 546 
Q 2797 -91 2034 -91 
z
" transform="scale(0.015625)"/>
       </defs>
       <use xlink:href="#DejaVuSerif-30"/>
      </g>
     </g>
    </g>
    <g id="xtick_2">
     <g id="line2d_3">
      <path d="M 178.020369 376.77 
L 178.020369 25.13 
" clip-path="url(#p2842e525f6)" style="fill: none; stroke: #b0b0b0; stroke-opacity: 0.3; stroke-width: 0.8; stroke-linecap: square"/>
     </g>
     <g id="line2d_4">
      <g>
       <use xlink:href="#m0026b25b81" x="178.020369" y="376.77" style="stroke: #000000; stroke-width: 0.8"/>
      </g>
     </g>
     <g id="text_2">
      <!-- 20 -->
      <g transform="translate(170.385369 392.888125) scale(0.12 -0.12)">
       <defs>
        <path id="DejaVuSerif-32" d="M 819 3553 
L 469 3553 
L 469 4384 
Q 803 4563 1142 4656 
Q 1481 4750 1806 4750 
Q 2534 4750 2956 4397 
Q 3378 4044 3378 3438 
Q 3378 2753 2422 1800 
Q 2347 1728 2309 1691 
L 1131 513 
L 3078 513 
L 3078 1088 
L 3444 1088 
L 3444 0 
L 434 0 
L 434 341 
L 1850 1753 
Q 2319 2222 2519 2614 
Q 2719 3006 2719 3438 
Q 2719 3909 2473 4175 
Q 2228 4441 1797 4441 
Q 1350 4441 1106 4219 
Q 863 3997 819 3553 
z
" transform="scale(0.015625)"/>
       </defs>
       <use xlink:href="#DejaVuSerif-32"/>
       <use xlink:href="#DejaVuSerif-30" transform="translate(63.623047 0)"/>
      </g>
     </g>
    </g>
    <g id="xtick_3">
     <g id="line2d_5">
      <path d="M 267.394915 376.77 
L 267.394915 25.13 
" clip-path="url(#p2842e525f6)" style="fill: none; stroke: #b0b0b0; stroke-opacity: 0.3; stroke-width: 0.8; stroke-linecap: square"/>
     </g>
     <g id="line2d_6">
      <g>
       <use xlink:href="#m0026b25b81" x="267.394915" y="376.77" style="stroke: #000000; stroke-width: 0.8"/>
      </g>
     </g>
     <g id="text_3">
      <!-- 40 -->
      <g transform="translate(259.759915 392.888125) scale(0.12 -0.12)">
       <defs>
        <path id="DejaVuSerif-34" d="M 2234 1581 
L 2234 4063 
L 641 1581 
L 2234 1581 
z
M 3609 0 
L 1484 0 
L 1484 331 
L 2234 331 
L 2234 1247 
L 197 1247 
L 197 1588 
L 2241 4750 
L 2859 4750 
L 2859 1581 
L 3750 1581 
L 3750 1247 
L 2859 1247 
L 2859 331 
L 3609 331 
L 3609 0 
z
" transform="scale(0.015625)"/>
       </defs>
       <use xlink:href="#DejaVuSerif-34"/>
       <use xlink:href="#DejaVuSerif-30" transform="translate(63.623047 0)"/>
      </g>
     </g>
    </g>
    <g id="xtick_4">
     <g id="line2d_7">
      <path d="M 356.76946 376.77 
L 356.76946 25.13 
" clip-path="url(#p2842e525f6)" style="fill: none; stroke: #b0b0b0; stroke-opacity: 0.3; stroke-width: 0.8; stroke-linecap: square"/>
     </g>
     <g id="line2d_8">
      <g>
       <use xlink:href="#m0026b25b81" x="356.76946" y="376.77" style="stroke: #000000; stroke-width: 0.8"/>
      </g>
     </g>
     <g id="text_4">
      <!-- 60 -->
      <g transform="translate(349.13446 392.888125) scale(0.12 -0.12)">
       <defs>
        <path id="DejaVuSerif-36" d="M 2094 219 
Q 2534 219 2771 542 
Q 3009 866 3009 1472 
Q 3009 2078 2771 2401 
Q 2534 2725 2094 2725 
Q 1647 2725 1412 2412 
Q 1178 2100 1178 1509 
Q 1178 888 1415 553 
Q 1653 219 2094 219 
z
M 1075 2569 
Q 1288 2803 1556 2918 
Q 1825 3034 2163 3034 
Q 2859 3034 3264 2615 
Q 3669 2197 3669 1472 
Q 3669 763 3233 336 
Q 2797 -91 2069 -91 
Q 1278 -91 853 498 
Q 428 1088 428 2181 
Q 428 3406 931 4078 
Q 1434 4750 2350 4750 
Q 2597 4750 2869 4703 
Q 3141 4656 3425 4563 
L 3425 3794 
L 3072 3794 
Q 3034 4109 2831 4275 
Q 2628 4441 2284 4441 
Q 1678 4441 1381 3981 
Q 1084 3522 1075 2569 
z
" transform="scale(0.015625)"/>
       </defs>
       <use xlink:href="#DejaVuSerif-36"/>
       <use xlink:href="#DejaVuSerif-30" transform="translate(63.623047 0)"/>
      </g>
     </g>
    </g>
    <g id="xtick_5">
     <g id="line2d_9">
      <path d="M 446.144006 376.77 
L 446.144006 25.13 
" clip-path="url(#p2842e525f6)" style="fill: none; stroke: #b0b0b0; stroke-opacity: 0.3; stroke-width: 0.8; stroke-linecap: square"/>
     </g>
     <g id="line2d_10">
      <g>
       <use xlink:href="#m0026b25b81" x="446.144006" y="376.77" style="stroke: #000000; stroke-width: 0.8"/>
      </g>
     </g>
     <g id="text_5">
      <!-- 80 -->
      <g transform="translate(438.509006 392.888125) scale(0.12 -0.12)">
       <defs>
        <path id="DejaVuSerif-38" d="M 2981 1275 
Q 2981 1775 2732 2051 
Q 2484 2328 2034 2328 
Q 1584 2328 1336 2051 
Q 1088 1775 1088 1275 
Q 1088 772 1336 495 
Q 1584 219 2034 219 
Q 2484 219 2732 495 
Q 2981 772 2981 1275 
z
M 2853 3541 
Q 2853 3966 2637 4203 
Q 2422 4441 2034 4441 
Q 1650 4441 1433 4203 
Q 1216 3966 1216 3541 
Q 1216 3113 1433 2875 
Q 1650 2638 2034 2638 
Q 2422 2638 2637 2875 
Q 2853 3113 2853 3541 
z
M 2516 2484 
Q 3047 2413 3344 2092 
Q 3641 1772 3641 1275 
Q 3641 619 3225 264 
Q 2809 -91 2034 -91 
Q 1263 -91 845 264 
Q 428 619 428 1275 
Q 428 1772 725 2092 
Q 1022 2413 1556 2484 
Q 1084 2569 832 2842 
Q 581 3116 581 3541 
Q 581 4103 968 4426 
Q 1356 4750 2034 4750 
Q 2713 4750 3100 4426 
Q 3488 4103 3488 3541 
Q 3488 3116 3236 2842 
Q 2984 2569 2516 2484 
z
" transform="scale(0.015625)"/>
       </defs>
       <use xlink:href="#DejaVuSerif-38"/>
       <use xlink:href="#DejaVuSerif-30" transform="translate(63.623047 0)"/>
      </g>
     </g>
    </g>
    <g id="xtick_6">
     <g id="line2d_11">
      <path d="M 535.518551 376.77 
L 535.518551 25.13 
" clip-path="url(#p2842e525f6)" style="fill: none; stroke: #b0b0b0; stroke-opacity: 0.3; stroke-width: 0.8; stroke-linecap: square"/>
     </g>
     <g id="line2d_12">
      <g>
       <use xlink:href="#m0026b25b81" x="535.518551" y="376.77" style="stroke: #000000; stroke-width: 0.8"/>
      </g>
     </g>
     <g id="text_6">
      <!-- 100 -->
      <g transform="translate(524.066051 392.888125) scale(0.12 -0.12)">
       <defs>
        <path id="DejaVuSerif-31" d="M 909 0 
L 909 331 
L 1722 331 
L 1722 4213 
L 781 3603 
L 781 4013 
L 1919 4750 
L 2350 4750 
L 2350 331 
L 3163 331 
L 3163 0 
L 909 0 
z
" transform="scale(0.015625)"/>
       </defs>
       <use xlink:href="#DejaVuSerif-31"/>
       <use xlink:href="#DejaVuSerif-30" transform="translate(63.623047 0)"/>
       <use xlink:href="#DejaVuSerif-30" transform="translate(127.246094 0)"/>
      </g>
     </g>
    </g>
    <g id="text_7">
     <!-- Time (reduced units) -->
     <g transform="translate(237.797969 410.021562) scale(0.14 -0.14)">
      <defs>
       <path id="DejaVuSerif-54" d="M 1222 0 
L 1222 331 
L 1819 331 
L 1819 4294 
L 447 4294 
L 447 3566 
L 63 3566 
L 63 4666 
L 4206 4666 
L 4206 3566 
L 3822 3566 
L 3822 4294 
L 2450 4294 
L 2450 331 
L 3047 331 
L 3047 0 
L 1222 0 
z
" transform="scale(0.015625)"/>
       <path id="DejaVuSerif-69" d="M 622 4353 
Q 622 4497 726 4603 
Q 831 4709 978 4709 
Q 1122 4709 1226 4603 
Q 1331 4497 1331 4353 
Q 1331 4206 1228 4103 
Q 1125 4000 978 4000 
Q 831 4000 726 4103 
Q 622 4206 622 4353 
z
M 1356 331 
L 1900 331 
L 1900 0 
L 231 0 
L 231 331 
L 781 331 
L 781 2988 
L 231 2988 
L 231 3322 
L 1356 3322 
L 1356 331 
z
" transform="scale(0.015625)"/>
       <path id="DejaVuSerif-6d" d="M 3316 2675 
Q 3481 3041 3739 3227 
Q 3997 3413 4341 3413 
Q 4863 3413 5119 3089 
Q 5375 2766 5375 2113 
L 5375 331 
L 5894 331 
L 5894 0 
L 4300 0 
L 4300 331 
L 4800 331 
L 4800 2047 
Q 4800 2556 4650 2772 
Q 4500 2988 4153 2988 
Q 3769 2988 3567 2697 
Q 3366 2406 3366 1850 
L 3366 331 
L 3866 331 
L 3866 0 
L 2291 0 
L 2291 331 
L 2791 331 
L 2791 2069 
Q 2791 2566 2641 2777 
Q 2491 2988 2144 2988 
Q 1759 2988 1557 2697 
Q 1356 2406 1356 1850 
L 1356 331 
L 1856 331 
L 1856 0 
L 263 0 
L 263 331 
L 781 331 
L 781 2994 
L 231 2994 
L 231 3322 
L 1356 3322 
L 1356 2731 
Q 1516 3063 1762 3238 
Q 2009 3413 2322 3413 
Q 2709 3413 2968 3220 
Q 3228 3028 3316 2675 
z
" transform="scale(0.015625)"/>
       <path id="DejaVuSerif-65" d="M 3469 1600 
L 991 1600 
L 991 1575 
Q 991 903 1244 561 
Q 1497 219 1991 219 
Q 2369 219 2611 417 
Q 2853 616 2950 1006 
L 3413 1006 
Q 3275 459 2904 184 
Q 2534 -91 1931 -91 
Q 1203 -91 761 389 
Q 319 869 319 1663 
Q 319 2450 753 2931 
Q 1188 3413 1894 3413 
Q 2647 3413 3050 2948 
Q 3453 2484 3469 1600 
z
M 2791 1931 
Q 2772 2513 2545 2808 
Q 2319 3103 1894 3103 
Q 1497 3103 1269 2806 
Q 1041 2509 991 1931 
L 2791 1931 
z
" transform="scale(0.015625)"/>
       <path id="DejaVuSerif-20" transform="scale(0.015625)"/>
       <path id="DejaVuSerif-28" d="M 2041 -997 
Q 1281 -656 893 83 
Q 506 822 506 1931 
Q 506 3044 893 3783 
Q 1281 4522 2041 4863 
L 2041 4556 
Q 1559 4225 1350 3623 
Q 1141 3022 1141 1931 
Q 1141 844 1350 242 
Q 1559 -359 2041 -691 
L 2041 -997 
z
" transform="scale(0.015625)"/>
       <path id="DejaVuSerif-72" d="M 3059 3328 
L 3059 2497 
L 2728 2497 
Q 2713 2744 2591 2866 
Q 2469 2988 2234 2988 
Q 1809 2988 1582 2694 
Q 1356 2400 1356 1850 
L 1356 331 
L 2022 331 
L 2022 0 
L 263 0 
L 263 331 
L 781 331 
L 781 2994 
L 231 2994 
L 231 3322 
L 1356 3322 
L 1356 2731 
Q 1525 3078 1790 3245 
Q 2056 3413 2438 3413 
Q 2578 3413 2733 3391 
Q 2888 3369 3059 3328 
z
" transform="scale(0.015625)"/>
       <path id="DejaVuSerif-64" d="M 3359 331 
L 3909 331 
L 3909 0 
L 2784 0 
L 2784 519 
Q 2616 206 2355 57 
Q 2094 -91 1709 -91 
Q 1097 -91 708 395 
Q 319 881 319 1663 
Q 319 2444 706 2928 
Q 1094 3413 1709 3413 
Q 2094 3413 2355 3264 
Q 2616 3116 2784 2803 
L 2784 4531 
L 2241 4531 
L 2241 4863 
L 3359 4863 
L 3359 331 
z
M 2784 1497 
L 2784 1825 
Q 2784 2422 2554 2737 
Q 2325 3053 1888 3053 
Q 1444 3053 1217 2703 
Q 991 2353 991 1663 
Q 991 975 1217 622 
Q 1444 269 1888 269 
Q 2325 269 2554 583 
Q 2784 897 2784 1497 
z
" transform="scale(0.015625)"/>
       <path id="DejaVuSerif-75" d="M 2266 3322 
L 3341 3322 
L 3341 331 
L 3884 331 
L 3884 0 
L 2766 0 
L 2766 588 
Q 2606 256 2353 82 
Q 2100 -91 1766 -91 
Q 1213 -91 952 223 
Q 691 538 691 1209 
L 691 2988 
L 172 2988 
L 172 3322 
L 1269 3322 
L 1269 1388 
Q 1269 781 1417 556 
Q 1566 331 1947 331 
Q 2347 331 2556 625 
Q 2766 919 2766 1478 
L 2766 2988 
L 2266 2988 
L 2266 3322 
z
" transform="scale(0.015625)"/>
       <path id="DejaVuSerif-63" d="M 3291 997 
Q 3169 466 2822 187 
Q 2475 -91 1925 -91 
Q 1200 -91 759 389 
Q 319 869 319 1663 
Q 319 2459 759 2936 
Q 1200 3413 1925 3413 
Q 2241 3413 2553 3339 
Q 2866 3266 3181 3116 
L 3181 2266 
L 2847 2266 
Q 2781 2703 2561 2903 
Q 2341 3103 1931 3103 
Q 1466 3103 1228 2742 
Q 991 2381 991 1663 
Q 991 944 1227 581 
Q 1463 219 1931 219 
Q 2303 219 2525 412 
Q 2747 606 2828 997 
L 3291 997 
z
" transform="scale(0.015625)"/>
       <path id="DejaVuSerif-6e" d="M 263 0 
L 263 331 
L 781 331 
L 781 2988 
L 231 2988 
L 231 3322 
L 1356 3322 
L 1356 2731 
Q 1516 3069 1770 3241 
Q 2025 3413 2363 3413 
Q 2913 3413 3172 3097 
Q 3431 2781 3431 2113 
L 3431 331 
L 3944 331 
L 3944 0 
L 2356 0 
L 2356 331 
L 2853 331 
L 2853 1931 
Q 2853 2541 2703 2767 
Q 2553 2994 2175 2994 
Q 1775 2994 1565 2701 
Q 1356 2409 1356 1850 
L 1356 331 
L 1856 331 
L 1856 0 
L 263 0 
z
" transform="scale(0.015625)"/>
       <path id="DejaVuSerif-74" d="M 691 2988 
L 184 2988 
L 184 3322 
L 691 3322 
L 691 4353 
L 1269 4353 
L 1269 3322 
L 2350 3322 
L 2350 2988 
L 1269 2988 
L 1269 878 
Q 1269 456 1350 337 
Q 1431 219 1650 219 
Q 1875 219 1978 351 
Q 2081 484 2088 781 
L 2522 781 
Q 2497 328 2275 118 
Q 2053 -91 1600 -91 
Q 1103 -91 897 129 
Q 691 350 691 878 
L 691 2988 
z
" transform="scale(0.015625)"/>
       <path id="DejaVuSerif-73" d="M 359 184 
L 359 959 
L 691 959 
Q 703 588 923 403 
Q 1144 219 1575 219 
Q 1963 219 2166 364 
Q 2369 509 2369 788 
Q 2369 1006 2220 1140 
Q 2072 1275 1594 1428 
L 1178 1569 
Q 750 1706 558 1912 
Q 366 2119 366 2438 
Q 366 2894 700 3153 
Q 1034 3413 1625 3413 
Q 1888 3413 2178 3344 
Q 2469 3275 2778 3144 
L 2778 2419 
L 2447 2419 
Q 2434 2741 2221 2922 
Q 2009 3103 1644 3103 
Q 1281 3103 1095 2975 
Q 909 2847 909 2591 
Q 909 2381 1050 2254 
Q 1191 2128 1613 1997 
L 2069 1856 
Q 2541 1709 2748 1489 
Q 2956 1269 2956 922 
Q 2956 450 2595 179 
Q 2234 -91 1600 -91 
Q 1278 -91 972 -22 
Q 666 47 359 184 
z
" transform="scale(0.015625)"/>
       <path id="DejaVuSerif-29" d="M 453 -997 
L 453 -691 
Q 934 -359 1145 242 
Q 1356 844 1356 1931 
Q 1356 3022 1145 3623 
Q 934 4225 453 4556 
L 453 4863 
Q 1216 4522 1603 3783 
Q 1991 3044 1991 1931 
Q 1991 822 1603 83 
Q 1216 -656 453 -997 
z
" transform="scale(0.015625)"/>
      </defs>
      <use xlink:href="#DejaVuSerif-54"/>
      <use xlink:href="#DejaVuSerif-69" transform="translate(66.699219 0)"/>
      <use xlink:href="#DejaVuSerif-6d" transform="translate(98.681641 0)"/>
      <use xlink:href="#DejaVuSerif-65" transform="translate(193.505859 0)"/>
      <use xlink:href="#DejaVuSerif-20" transform="translate(252.685547 0)"/>
      <use xlink:href="#DejaVuSerif-28" transform="translate(284.472656 0)"/>
      <use xlink:href="#DejaVuSerif-72" transform="translate(323.486328 0)"/>
      <use xlink:href="#DejaVuSerif-65" transform="translate(371.289062 0)"/>
      <use xlink:href="#DejaVuSerif-64" transform="translate(430.46875 0)"/>
      <use xlink:href="#DejaVuSerif-75" transform="translate(494.482422 0)"/>
      <use xlink:href="#DejaVuSerif-63" transform="translate(558.886719 0)"/>
      <use xlink:href="#DejaVuSerif-65" transform="translate(614.892578 0)"/>
      <use xlink:href="#DejaVuSerif-64" transform="translate(674.072266 0)"/>
      <use xlink:href="#DejaVuSerif-20" transform="translate(738.085938 0)"/>
      <use xlink:href="#DejaVuSerif-75" transform="translate(769.873047 0)"/>
      <use xlink:href="#DejaVuSerif-6e" transform="translate(834.277344 0)"/>
      <use xlink:href="#DejaVuSerif-69" transform="translate(898.681641 0)"/>
      <use xlink:href="#DejaVuSerif-74" transform="translate(930.664062 0)"/>
      <use xlink:href="#DejaVuSerif-73" transform="translate(970.849609 0)"/>
      <use xlink:href="#DejaVuSerif-29" transform="translate(1022.167969 0)"/>
     </g>
    </g>
   </g>
   <g id="matplotlib.axis_2">
    <g id="ytick_1">
     <g id="line2d_13">
      <path d="M 66.302188 333.192305 
L 557.862188 333.192305 
" clip-path="url(#p2842e525f6)" style="fill: none; stroke: #b0b0b0; stroke-opacity: 0.3; stroke-width: 0.8; stroke-linecap: square"/>
     </g>
     <g id="line2d_14">
      <defs>
       <path id="m32c2f9e3c7" d="M 0 0 
L -3.5 0 
" style="stroke: #000000; stroke-width: 0.8"/>
      </defs>
      <g>
       <use xlink:href="#m32c2f9e3c7" x="66.302188" y="333.192305" style="stroke: #000000; stroke-width: 0.8"/>
      </g>
     </g>
     <g id="text_8">
      <!-- 9.90 -->
      <g transform="translate(32.583438 337.751367) scale(0.12 -0.12)">
       <defs>
        <path id="DejaVuSerif-39" d="M 2994 2091 
Q 2784 1856 2512 1740 
Q 2241 1625 1900 1625 
Q 1206 1625 804 2044 
Q 403 2463 403 3188 
Q 403 3897 839 4323 
Q 1275 4750 2003 4750 
Q 2794 4750 3217 4161 
Q 3641 3572 3641 2478 
Q 3641 1253 3137 581 
Q 2634 -91 1722 -91 
Q 1475 -91 1203 -44 
Q 931 3 647 97 
L 647 872 
L 997 872 
Q 1038 556 1241 387 
Q 1444 219 1784 219 
Q 2391 219 2687 676 
Q 2984 1134 2994 2091 
z
M 1978 4441 
Q 1534 4441 1298 4117 
Q 1063 3794 1063 3188 
Q 1063 2581 1298 2256 
Q 1534 1931 1978 1931 
Q 2422 1931 2658 2245 
Q 2894 2559 2894 3150 
Q 2894 3772 2656 4106 
Q 2419 4441 1978 4441 
z
" transform="scale(0.015625)"/>
        <path id="DejaVuSerif-2e" d="M 603 325 
Q 603 500 722 622 
Q 841 744 1019 744 
Q 1191 744 1312 622 
Q 1434 500 1434 325 
Q 1434 153 1312 31 
Q 1191 -91 1019 -91 
Q 841 -91 722 29 
Q 603 150 603 325 
z
" transform="scale(0.015625)"/>
       </defs>
       <use xlink:href="#DejaVuSerif-39"/>
       <use xlink:href="#DejaVuSerif-2e" transform="translate(63.623047 0)"/>
       <use xlink:href="#DejaVuSerif-39" transform="translate(95.410156 0)"/>
       <use xlink:href="#DejaVuSerif-30" transform="translate(159.033203 0)"/>
      </g>
     </g>
    </g>
    <g id="ytick_2">
     <g id="line2d_15">
      <path d="M 66.302188 267.965497 
L 557.862188 267.965497 
" clip-path="url(#p2842e525f6)" style="fill: none; stroke: #b0b0b0; stroke-opacity: 0.3; stroke-width: 0.8; stroke-linecap: square"/>
     </g>
     <g id="line2d_16">
      <g>
       <use xlink:href="#m32c2f9e3c7" x="66.302188" y="267.965497" style="stroke: #000000; stroke-width: 0.8"/>
      </g>
     </g>
     <g id="text_9">
      <!-- 9.95 -->
      <g transform="translate(32.583438 272.524559) scale(0.12 -0.12)">
       <defs>
        <path id="DejaVuSerif-35" d="M 3219 4666 
L 3219 4153 
L 1081 4153 
L 1081 2816 
Q 1244 2928 1461 2984 
Q 1678 3041 1947 3041 
Q 2703 3041 3140 2622 
Q 3578 2203 3578 1478 
Q 3578 738 3136 323 
Q 2694 -91 1894 -91 
Q 1572 -91 1234 -12 
Q 897 66 544 225 
L 544 1131 
L 897 1131 
Q 925 688 1179 453 
Q 1434 219 1894 219 
Q 2388 219 2653 544 
Q 2919 869 2919 1478 
Q 2919 2084 2655 2407 
Q 2391 2731 1894 2731 
Q 1613 2731 1398 2631 
Q 1184 2531 1019 2322 
L 750 2322 
L 750 4666 
L 3219 4666 
z
" transform="scale(0.015625)"/>
       </defs>
       <use xlink:href="#DejaVuSerif-39"/>
       <use xlink:href="#DejaVuSerif-2e" transform="translate(63.623047 0)"/>
       <use xlink:href="#DejaVuSerif-39" transform="translate(95.410156 0)"/>
       <use xlink:href="#DejaVuSerif-35" transform="translate(159.033203 0)"/>
      </g>
     </g>
    </g>
    <g id="ytick_3">
     <g id="line2d_17">
      <path d="M 66.302188 202.738688 
L 557.862188 202.738688 
" clip-path="url(#p2842e525f6)" style="fill: none; stroke: #b0b0b0; stroke-opacity: 0.3; stroke-width: 0.8; stroke-linecap: square"/>
     </g>
     <g id="line2d_18">
      <g>
       <use xlink:href="#m32c2f9e3c7" x="66.302188" y="202.738688" style="stroke: #000000; stroke-width: 0.8"/>
      </g>
     </g>
     <g id="text_10">
      <!-- 10.00 -->
      <g transform="translate(24.948438 207.297751) scale(0.12 -0.12)">
       <use xlink:href="#DejaVuSerif-31"/>
       <use xlink:href="#DejaVuSerif-30" transform="translate(63.623047 0)"/>
       <use xlink:href="#DejaVuSerif-2e" transform="translate(127.246094 0)"/>
       <use xlink:href="#DejaVuSerif-30" transform="translate(159.033203 0)"/>
       <use xlink:href="#DejaVuSerif-30" transform="translate(222.65625 0)"/>
      </g>
     </g>
    </g>
    <g id="ytick_4">
     <g id="line2d_19">
      <path d="M 66.302188 137.51188 
L 557.862188 137.51188 
" clip-path="url(#p2842e525f6)" style="fill: none; stroke: #b0b0b0; stroke-opacity: 0.3; stroke-width: 0.8; stroke-linecap: square"/>
     </g>
     <g id="line2d_20">
      <g>
       <use xlink:href="#m32c2f9e3c7" x="66.302188" y="137.51188" style="stroke: #000000; stroke-width: 0.8"/>
      </g>
     </g>
     <g id="text_11">
      <!-- 10.05 -->
      <g transform="translate(24.948438 142.070942) scale(0.12 -0.12)">
       <use xlink:href="#DejaVuSerif-31"/>
       <use xlink:href="#DejaVuSerif-30" transform="translate(63.623047 0)"/>
       <use xlink:href="#DejaVuSerif-2e" transform="translate(127.246094 0)"/>
       <use xlink:href="#DejaVuSerif-30" transform="translate(159.033203 0)"/>
       <use xlink:href="#DejaVuSerif-35" transform="translate(222.65625 0)"/>
      </g>
     </g>
    </g>
    <g id="ytick_5">
     <g id="line2d_21">
      <path d="M 66.302188 72.285071 
L 557.862188 72.285071 
" clip-path="url(#p2842e525f6)" style="fill: none; stroke: #b0b0b0; stroke-opacity: 0.3; stroke-width: 0.8; stroke-linecap: square"/>
     </g>
     <g id="line2d_22">
      <g>
       <use xlink:href="#m32c2f9e3c7" x="66.302188" y="72.285071" style="stroke: #000000; stroke-width: 0.8"/>
      </g>
     </g>
     <g id="text_12">
      <!-- 10.10 -->
      <g transform="translate(24.948438 76.844134) scale(0.12 -0.12)">
       <use xlink:href="#DejaVuSerif-31"/>
       <use xlink:href="#DejaVuSerif-30" transform="translate(63.623047 0)"/>
       <use xlink:href="#DejaVuSerif-2e" transform="translate(127.246094 0)"/>
       <use xlink:href="#DejaVuSerif-31" transform="translate(159.033203 0)"/>
       <use xlink:href="#DejaVuSerif-30" transform="translate(222.65625 0)"/>
      </g>
     </g>
    </g>
    <g id="text_13">
     <!-- Total Energy (reduced units) -->
     <g transform="translate(17.837812 302.879844) rotate(-90) scale(0.14 -0.14)">
      <defs>
       <path id="DejaVuSerif-6f" d="M 1925 219 
Q 2388 219 2623 584 
Q 2859 950 2859 1663 
Q 2859 2375 2623 2739 
Q 2388 3103 1925 3103 
Q 1463 3103 1227 2739 
Q 991 2375 991 1663 
Q 991 950 1228 584 
Q 1466 219 1925 219 
z
M 1925 -91 
Q 1200 -91 759 389 
Q 319 869 319 1663 
Q 319 2456 758 2934 
Q 1197 3413 1925 3413 
Q 2653 3413 3092 2934 
Q 3531 2456 3531 1663 
Q 3531 869 3092 389 
Q 2653 -91 1925 -91 
z
" transform="scale(0.015625)"/>
       <path id="DejaVuSerif-61" d="M 2547 1044 
L 2547 1747 
L 1806 1747 
Q 1378 1747 1168 1562 
Q 959 1378 959 997 
Q 959 650 1171 447 
Q 1384 244 1747 244 
Q 2106 244 2326 466 
Q 2547 688 2547 1044 
z
M 3122 2075 
L 3122 331 
L 3634 331 
L 3634 0 
L 2547 0 
L 2547 359 
Q 2356 128 2106 18 
Q 1856 -91 1522 -91 
Q 969 -91 644 203 
Q 319 497 319 997 
Q 319 1513 691 1797 
Q 1063 2081 1741 2081 
L 2547 2081 
L 2547 2309 
Q 2547 2688 2317 2895 
Q 2088 3103 1672 3103 
Q 1328 3103 1125 2947 
Q 922 2791 872 2484 
L 575 2484 
L 575 3156 
Q 875 3284 1158 3348 
Q 1441 3413 1709 3413 
Q 2400 3413 2761 3070 
Q 3122 2728 3122 2075 
z
" transform="scale(0.015625)"/>
       <path id="DejaVuSerif-6c" d="M 1313 331 
L 1856 331 
L 1856 0 
L 184 0 
L 184 331 
L 738 331 
L 738 4531 
L 184 4531 
L 184 4863 
L 1313 4863 
L 1313 331 
z
" transform="scale(0.015625)"/>
       <path id="DejaVuSerif-45" d="M 353 0 
L 353 331 
L 947 331 
L 947 4331 
L 353 4331 
L 353 4666 
L 4109 4666 
L 4109 3628 
L 3725 3628 
L 3725 4281 
L 1581 4281 
L 1581 2719 
L 3109 2719 
L 3109 3303 
L 3494 3303 
L 3494 1753 
L 3109 1753 
L 3109 2338 
L 1581 2338 
L 1581 384 
L 3775 384 
L 3775 1038 
L 4159 1038 
L 4159 0 
L 353 0 
z
" transform="scale(0.015625)"/>
       <path id="DejaVuSerif-67" d="M 3359 2988 
L 3359 72 
Q 3359 -644 2965 -1033 
Q 2572 -1422 1844 -1422 
Q 1516 -1422 1216 -1362 
Q 916 -1303 641 -1184 
L 641 -488 
L 941 -488 
Q 997 -813 1206 -963 
Q 1416 -1113 1806 -1113 
Q 2313 -1113 2548 -827 
Q 2784 -541 2784 72 
L 2784 519 
Q 2616 206 2355 57 
Q 2094 -91 1709 -91 
Q 1097 -91 708 395 
Q 319 881 319 1663 
Q 319 2444 706 2928 
Q 1094 3413 1709 3413 
Q 2094 3413 2355 3264 
Q 2616 3116 2784 2803 
L 2784 3322 
L 3909 3322 
L 3909 2988 
L 3359 2988 
z
M 2784 1825 
Q 2784 2422 2554 2737 
Q 2325 3053 1888 3053 
Q 1444 3053 1217 2703 
Q 991 2353 991 1663 
Q 991 975 1217 622 
Q 1444 269 1888 269 
Q 2325 269 2554 583 
Q 2784 897 2784 1497 
L 2784 1825 
z
" transform="scale(0.015625)"/>
       <path id="DejaVuSerif-79" d="M 1381 -609 
L 1600 -56 
L 359 2988 
L -19 2988 
L -19 3322 
L 1509 3322 
L 1509 2988 
L 978 2988 
L 1913 703 
L 2847 2988 
L 2350 2988 
L 2350 3322 
L 3597 3322 
L 3597 2988 
L 3225 2988 
L 1703 -750 
Q 1547 -1138 1356 -1280 
Q 1166 -1422 819 -1422 
Q 672 -1422 517 -1397 
Q 363 -1372 206 -1325 
L 206 -691 
L 500 -691 
Q 519 -903 608 -995 
Q 697 -1088 884 -1088 
Q 1056 -1088 1161 -992 
Q 1266 -897 1381 -609 
z
" transform="scale(0.015625)"/>
      </defs>
      <use xlink:href="#DejaVuSerif-54"/>
      <use xlink:href="#DejaVuSerif-6f" transform="translate(58.949219 0)"/>
      <use xlink:href="#DejaVuSerif-74" transform="translate(119.154297 0)"/>
      <use xlink:href="#DejaVuSerif-61" transform="translate(159.339844 0)"/>
      <use xlink:href="#DejaVuSerif-6c" transform="translate(218.958984 0)"/>
      <use xlink:href="#DejaVuSerif-20" transform="translate(250.941406 0)"/>
      <use xlink:href="#DejaVuSerif-45" transform="translate(282.728516 0)"/>
      <use xlink:href="#DejaVuSerif-6e" transform="translate(355.726562 0)"/>
      <use xlink:href="#DejaVuSerif-65" transform="translate(420.130859 0)"/>
      <use xlink:href="#DejaVuSerif-72" transform="translate(479.310547 0)"/>
      <use xlink:href="#DejaVuSerif-67" transform="translate(527.113281 0)"/>
      <use xlink:href="#DejaVuSerif-79" transform="translate(591.126953 0)"/>
      <use xlink:href="#DejaVuSerif-20" transform="translate(647.621094 0)"/>
      <use xlink:href="#DejaVuSerif-28" transform="translate(679.408203 0)"/>
      <use xlink:href="#DejaVuSerif-72" transform="translate(718.421875 0)"/>
      <use xlink:href="#DejaVuSerif-65" transform="translate(766.224609 0)"/>
      <use xlink:href="#DejaVuSerif-64" transform="translate(825.404297 0)"/>
      <use xlink:href="#DejaVuSerif-75" transform="translate(889.417969 0)"/>
      <use xlink:href="#DejaVuSerif-63" transform="translate(953.822266 0)"/>
      <use xlink:href="#DejaVuSerif-65" transform="translate(1009.828125 0)"/>
      <use xlink:href="#DejaVuSerif-64" transform="translate(1069.007812 0)"/>
      <use xlink:href="#DejaVuSerif-20" transform="translate(1133.021484 0)"/>
      <use xlink:href="#DejaVuSerif-75" transform="translate(1164.808594 0)"/>
      <use xlink:href="#DejaVuSerif-6e" transform="translate(1229.212891 0)"/>
      <use xlink:href="#DejaVuSerif-69" transform="translate(1293.617188 0)"/>
      <use xlink:href="#DejaVuSerif-74" transform="translate(1325.599609 0)"/>
      <use xlink:href="#DejaVuSerif-73" transform="translate(1365.785156 0)"/>
      <use xlink:href="#DejaVuSerif-29" transform="translate(1417.103516 0)"/>
     </g>
    </g>
   </g>
   <g id="line2d_23">
    <path d="M 88.645824 207.89696 
L 89.093144 186.729776 
L 89.540464 190.440736 
L 89.987784 196.835052 
L 90.435104 205.51241 
L 90.882424 193.691549 
L 91.329744 188.52283 
L 91.777064 180.971412 
L 92.224384 158.712243 
L 92.671704 197.417829 
L 93.119024 195.359863 
L 93.566344 200.975306 
L 94.013664 189.661913 
L 94.460984 156.181915 
L 94.908305 186.733539 
L 95.355625 179.867458 
L 95.802945 193.8258 
L 96.250265 176.894442 
L 96.697585 164.56988 
L 97.144905 178.793594 
L 97.592225 181.868129 
L 98.039545 191.120415 
L 98.486865 182.433284 
L 98.934185 177.121861 
L 99.381505 184.559006 
L 100.276145 164.434249 
L 100.723465 177.287042 
L 101.618105 144.914621 
L 102.065425 150.948159 
L 102.512745 170.277937 
L 102.960065 173.19718 
L 103.407385 160.291046 
L 103.854705 131.977049 
L 104.302026 166.526452 
L 104.749346 155.223995 
L 105.196666 162.008407 
L 105.643986 156.541683 
L 106.091306 132.838309 
L 106.538626 137.084758 
L 107.433266 149.195204 
L 107.880586 139.299975 
L 108.775226 156.88367 
L 109.222546 134.025845 
L 109.669866 157.320738 
L 110.117186 129.157643 
L 110.564506 129.452265 
L 111.011826 122.364094 
L 111.906466 145.643574 
L 112.353786 142.989239 
L 112.801106 128.782919 
L 113.248426 133.762618 
L 113.695747 123.562385 
L 114.143067 120.034296 
L 114.590387 112.40859 
L 115.037707 123.376669 
L 115.485027 146.609876 
L 115.932347 122.594261 
L 116.379667 112.990831 
L 116.826987 122.32861 
L 117.274307 112.055747 
L 117.721627 150.998838 
L 118.168947 120.095135 
L 118.616267 115.371218 
L 119.063587 123.727893 
L 119.510907 116.821756 
L 119.958227 113.708558 
L 120.405547 117.596039 
L 120.852867 108.482848 
L 121.300187 91.335063 
L 121.747507 121.256571 
L 122.194827 85.564299 
L 122.642147 103.696018 
L 123.089468 84.865788 
L 123.536788 116.140052 
L 123.984108 107.688422 
L 124.431428 92.469808 
L 124.878748 112.584839 
L 125.326068 124.40717 
L 125.773388 99.914501 
L 126.220708 116.858477 
L 126.668028 122.286944 
L 127.115348 97.922261 
L 127.562668 112.86012 
L 128.009988 109.928932 
L 128.457308 111.445165 
L 128.904628 91.866803 
L 129.351948 96.719908 
L 129.799268 98.740247 
L 130.246588 110.417226 
L 130.693908 107.48218 
L 131.141228 101.247542 
L 131.588548 100.460731 
L 132.035868 95.081522 
L 132.483189 92.797384 
L 132.930509 91.383269 
L 133.377829 81.308225 
L 133.825149 65.376122 
L 134.272469 101.203134 
L 134.719789 113.748101 
L 135.167109 89.898915 
L 135.614429 85.498505 
L 136.061749 91.447694 
L 136.509069 120.487658 
L 136.956389 104.173364 
L 137.403709 103.710857 
L 137.851029 83.945609 
L 138.298349 87.862349 
L 138.745669 98.243041 
L 139.192989 81.666366 
L 139.640309 86.556983 
L 140.087629 72.737416 
L 140.534949 87.532841 
L 140.982269 95.200637 
L 141.429589 68.134314 
L 141.876909 87.418597 
L 142.32423 67.627196 
L 142.77155 79.171769 
L 143.21887 70.283688 
L 143.66619 71.622025 
L 144.11351 96.286637 
L 144.56083 80.666723 
L 145.00815 91.004323 
L 145.45547 81.699622 
L 145.90279 62.652023 
L 146.35011 55.079059 
L 146.79743 95.13203 
L 147.24475 68.483825 
L 147.69207 78.796801 
L 148.13939 68.660406 
L 148.58671 92.14719 
L 149.03403 67.684717 
L 149.48135 81.074141 
L 149.92867 76.073819 
L 150.37599 76.406199 
L 150.82331 71.32152 
L 151.27063 51.597454 
L 151.717951 86.234673 
L 152.165271 101.187462 
L 152.612591 66.808421 
L 153.059911 54.984666 
L 153.507231 80.036923 
L 153.954551 87.857034 
L 154.401871 67.490316 
L 154.849191 61.648681 
L 155.296511 61.579184 
L 155.743831 56.879674 
L 156.191151 80.895668 
L 156.638471 71.514896 
L 157.085791 94.797114 
L 157.533111 73.150885 
L 157.980431 74.660008 
L 158.427751 80.656004 
L 158.875071 70.506414 
L 159.322391 73.136774 
L 159.769711 89.249853 
L 160.664351 100.189465 
L 161.558992 71.217977 
L 162.006312 79.440341 
L 162.453632 58.231085 
L 162.900952 105.647361 
L 163.348272 70.640631 
L 163.795592 61.382717 
L 164.242912 59.874469 
L 164.690232 99.070354 
L 165.137552 99.224644 
L 165.584872 54.550657 
L 166.032192 73.894684 
L 166.479512 78.307643 
L 166.926832 78.758462 
L 167.374152 68.65514 
L 167.821472 95.30217 
L 168.268792 87.94738 
L 168.716112 43.963712 
L 169.163432 68.353159 
L 169.610752 73.914614 
L 170.058072 73.29598 
L 170.505393 94.477418 
L 170.952713 82.909841 
L 171.400033 56.758563 
L 171.847353 79.234759 
L 172.294673 71.838105 
L 172.741993 82.14539 
L 173.189313 100.211172 
L 173.636633 79.414618 
L 174.083953 65.300719 
L 174.531273 83.39304 
L 174.978593 73.889373 
L 175.425913 72.818972 
L 175.873233 76.913354 
L 176.320553 63.695616 
L 176.767873 62.421817 
L 177.215193 75.810507 
L 177.662513 68.824054 
L 178.109833 75.262783 
L 178.557153 76.968635 
L 179.004473 104.749248 
L 179.451793 77.760148 
L 179.899114 64.634462 
L 180.346434 83.770526 
L 180.793754 80.243647 
L 181.241074 107.478867 
L 181.688394 100.013768 
L 182.135714 77.509589 
L 182.583034 82.764899 
L 183.030354 114.480126 
L 183.924994 82.50229 
L 184.372314 97.770092 
L 184.819634 88.106717 
L 185.266954 108.833018 
L 185.714274 117.798876 
L 186.608914 100.412122 
L 187.056234 85.40512 
L 187.503554 90.132382 
L 187.950874 88.322131 
L 188.398194 96.116591 
L 188.845514 96.556826 
L 189.292835 105.337993 
L 189.740155 66.014669 
L 190.187475 98.237132 
L 190.634795 83.445614 
L 191.082115 86.463639 
L 191.529435 95.78552 
L 191.976755 94.155333 
L 192.424075 111.70302 
L 192.871395 118.008103 
L 193.318715 101.686541 
L 193.766035 101.557138 
L 194.213355 111.4405 
L 194.660675 116.918025 
L 195.107995 112.529458 
L 195.555315 113.330499 
L 196.002635 106.674936 
L 196.449955 124.98155 
L 196.897275 105.853291 
L 197.344595 105.794492 
L 197.791915 111.874409 
L 198.239235 123.43351 
L 199.133876 100.31348 
L 199.581196 127.074965 
L 200.028516 144.449557 
L 200.475836 122.514164 
L 200.923156 94.886467 
L 201.370476 139.677156 
L 201.817796 120.126037 
L 202.265116 115.450889 
L 202.712436 123.590591 
L 203.159756 116.364462 
L 203.607076 132.094264 
L 204.054396 117.202029 
L 204.949036 152.477023 
L 205.396356 142.122815 
L 205.843676 101.480067 
L 206.290996 127.900043 
L 206.738316 129.203732 
L 207.185636 127.708443 
L 207.632956 137.346479 
L 208.080276 151.59936 
L 208.974917 120.753911 
L 209.422237 140.37304 
L 209.869557 153.734285 
L 210.316877 151.356224 
L 210.764197 172.754705 
L 211.211517 176.647402 
L 211.658837 165.643255 
L 212.106157 180.504025 
L 212.553477 152.930725 
L 213.000797 142.786953 
L 213.448117 142.019824 
L 213.895437 160.537716 
L 214.342757 165.088391 
L 215.237397 168.96691 
L 215.684717 131.036714 
L 216.132037 160.898315 
L 216.579357 176.90418 
L 217.026677 185.02059 
L 217.473997 154.42459 
L 217.921318 173.312713 
L 218.368638 157.46494 
L 218.815958 178.05908 
L 219.263278 178.631125 
L 219.710598 185.678477 
L 220.157918 187.488053 
L 220.605238 173.091196 
L 221.052558 174.433798 
L 221.499878 167.719818 
L 221.947198 166.969522 
L 222.841838 194.929177 
L 223.289158 189.205415 
L 223.736478 178.033474 
L 224.183798 171.922368 
L 224.631118 200.516835 
L 225.078438 190.397814 
L 225.525758 171.049776 
L 225.973078 201.913734 
L 226.420398 183.901094 
L 226.867718 215.955856 
L 227.315039 207.758337 
L 227.762359 189.488239 
L 228.209679 192.755244 
L 228.656999 199.304289 
L 229.104319 188.152148 
L 229.998959 213.346513 
L 230.446279 194.537077 
L 230.893599 217.760202 
L 231.340919 217.254311 
L 231.788239 223.204076 
L 232.235559 193.551566 
L 232.682879 202.70363 
L 233.130199 191.045983 
L 233.577519 214.072667 
L 234.024839 226.24728 
L 234.472159 201.785837 
L 234.919479 191.226279 
L 235.366799 218.242812 
L 235.814119 230.250853 
L 236.261439 230.154954 
L 236.70876 236.293381 
L 237.15608 194.062934 
L 238.05072 256.664118 
L 238.49804 214.826413 
L 238.94536 237.775342 
L 239.39268 227.882881 
L 239.84 257.040398 
L 240.28732 209.272133 
L 240.73464 255.021037 
L 241.18196 231.709457 
L 241.62928 218.156782 
L 242.0766 234.378637 
L 242.52392 226.054727 
L 242.97124 251.860594 
L 243.41856 219.086731 
L 243.86588 227.376098 
L 244.3132 250.93211 
L 244.76052 244.530988 
L 245.20784 239.725151 
L 246.102481 242.605906 
L 246.549801 241.278473 
L 246.997121 242.052574 
L 247.444441 247.693194 
L 247.891761 247.433137 
L 248.786401 276.910333 
L 249.233721 267.679734 
L 249.681041 279.880937 
L 250.128361 269.564344 
L 250.575681 277.923355 
L 251.023001 249.424554 
L 251.470321 286.474828 
L 251.917641 273.298859 
L 252.364961 264.888205 
L 252.812281 276.705024 
L 253.259601 277.971236 
L 253.706921 262.851427 
L 254.154241 265.602912 
L 254.601561 279.462739 
L 255.048881 263.066937 
L 255.496202 272.704868 
L 256.390842 259.961689 
L 257.285482 291.868151 
L 257.732802 275.43084 
L 258.180122 301.894726 
L 258.627442 290.588791 
L 259.074762 288.165266 
L 259.522082 267.582546 
L 259.969402 282.687469 
L 260.416722 313.89524 
L 260.864042 294.391284 
L 261.311362 311.826039 
L 261.758682 290.388278 
L 262.206002 282.35819 
L 262.653322 305.726494 
L 263.100642 279.308 
L 263.547962 295.893088 
L 263.995282 301.246663 
L 264.442602 285.010292 
L 265.337243 300.659368 
L 265.784563 286.652757 
L 266.231883 302.052759 
L 266.679203 280.587384 
L 267.126523 312.114034 
L 267.573843 301.69694 
L 268.021163 322.829525 
L 268.468483 294.133376 
L 268.915803 315.320613 
L 269.363123 299.513079 
L 269.810443 333.697622 
L 270.257763 299.947524 
L 270.705083 292.743873 
L 271.152403 315.095715 
L 271.599723 311.547505 
L 272.047043 286.581938 
L 272.494363 314.832786 
L 273.389003 333.248916 
L 273.836323 329.804858 
L 274.283644 311.638103 
L 274.730964 334.437624 
L 275.178284 313.581948 
L 275.625604 314.540038 
L 276.072924 303.396826 
L 276.520244 275.550796 
L 276.967564 307.022039 
L 277.414884 313.309832 
L 278.309524 292.393417 
L 278.756844 324.235938 
L 279.204164 290.105752 
L 279.651484 294.860126 
L 280.098804 287.306536 
L 280.546124 314.732163 
L 280.993444 306.2323 
L 281.440764 321.511345 
L 281.888084 316.1201 
L 282.335404 334.0986 
L 282.782724 313.717114 
L 283.230044 335.114379 
L 284.124685 327.259854 
L 284.572005 316.020043 
L 285.019325 323.831066 
L 285.466645 325.567938 
L 285.913965 307.375674 
L 286.361285 328.076984 
L 286.808605 327.440658 
L 287.255925 339.740864 
L 287.703245 323.442782 
L 288.150565 336.391367 
L 288.597885 326.64548 
L 289.045205 335.597704 
L 289.492525 342.023713 
L 289.939845 331.989711 
L 290.387165 327.82844 
L 290.834485 332.207745 
L 291.281805 304.24648 
L 292.176445 347.403735 
L 292.623765 321.816001 
L 293.071085 310.602238 
L 293.518406 348.123017 
L 293.965726 324.54897 
L 294.413046 334.978365 
L 294.860366 332.636112 
L 295.307686 356.94411 
L 295.755006 318.302706 
L 296.202326 342.363614 
L 296.649646 313.075335 
L 297.096966 340.209231 
L 297.544286 332.557157 
L 297.991606 332.517032 
L 298.438926 324.781484 
L 298.886246 326.037595 
L 299.333566 324.881713 
L 299.780886 334.215557 
L 300.228206 356.250452 
L 300.675526 325.628466 
L 301.122846 327.427747 
L 301.570166 332.419028 
L 302.017486 316.944602 
L 302.464806 328.624487 
L 302.912127 331.734595 
L 303.359447 348.598639 
L 303.806767 345.771959 
L 304.254087 338.898165 
L 304.701407 334.488615 
L 305.148727 339.184865 
L 305.596047 316.615535 
L 306.043367 305.392491 
L 306.938007 332.063015 
L 307.385327 336.901294 
L 307.832647 336.77155 
L 308.279967 324.963373 
L 308.727287 321.704763 
L 309.174607 327.974946 
L 309.621927 336.279448 
L 310.069247 326.315243 
L 310.516567 342.581381 
L 310.963887 328.868139 
L 311.411207 330.653214 
L 311.858527 322.668704 
L 312.305848 310.798691 
L 312.753168 339.33883 
L 313.200488 332.948299 
L 313.647808 360.786364 
L 314.095128 326.877038 
L 314.989768 312.935471 
L 315.437088 341.679548 
L 315.884408 313.325663 
L 316.331728 342.735757 
L 316.779048 328.12078 
L 318.121008 339.931851 
L 318.568328 296.12057 
L 319.015648 334.831354 
L 319.462968 325.524834 
L 319.910288 313.130114 
L 320.357608 311.084602 
L 320.804928 333.999259 
L 321.252248 306.037901 
L 321.699569 317.822641 
L 322.146889 307.77077 
L 322.594209 323.163482 
L 323.041529 314.350231 
L 323.488849 313.852908 
L 323.936169 314.796481 
L 324.383489 295.210141 
L 324.830809 313.00662 
L 325.278129 308.544391 
L 325.725449 300.168495 
L 326.172769 297.119023 
L 326.620089 280.636687 
L 327.514729 325.387983 
L 327.962049 309.545688 
L 328.409369 305.757414 
L 328.856689 310.554203 
L 329.304009 321.533619 
L 329.751329 268.564466 
L 330.645969 316.044517 
L 331.09329 308.574291 
L 331.54061 308.561647 
L 331.98793 270.938765 
L 332.43525 298.99009 
L 332.88257 286.604616 
L 333.32989 292.852832 
L 333.77721 276.376484 
L 334.22453 297.040791 
L 334.67185 288.696033 
L 335.11917 272.081008 
L 335.56649 290.446864 
L 336.01381 277.798624 
L 336.46113 309.255424 
L 336.90845 274.59662 
L 337.35577 272.802317 
L 337.80309 299.254192 
L 338.25041 304.787751 
L 338.69773 282.44577 
L 339.14505 289.555132 
L 339.59237 292.933332 
L 340.03969 278.316323 
L 340.487011 291.858562 
L 340.934331 276.348324 
L 341.381651 297.982594 
L 341.828971 240.41685 
L 342.276291 264.069863 
L 342.723611 279.276443 
L 343.170931 287.899437 
L 343.618251 260.658699 
L 344.065571 274.148112 
L 344.512891 291.437821 
L 344.960211 250.781806 
L 345.407531 255.937042 
L 345.854851 247.565805 
L 346.302171 291.755767 
L 346.749491 279.101412 
L 347.644131 233.888412 
L 348.091451 244.179672 
L 348.538771 239.966269 
L 348.986091 263.388076 
L 349.433411 254.356362 
L 350.328052 287.843502 
L 351.222692 252.439257 
L 351.670012 248.614834 
L 352.117332 252.873978 
L 352.564652 264.667385 
L 353.011972 258.915302 
L 353.459292 263.397757 
L 353.906612 255.938879 
L 354.353932 236.384832 
L 354.801252 245.168601 
L 355.248572 230.095027 
L 355.695892 242.345576 
L 356.143212 225.15728 
L 356.590532 244.793933 
L 357.037852 239.094339 
L 357.485172 251.843656 
L 357.932492 233.046937 
L 358.379812 204.241679 
L 358.827132 249.380486 
L 359.274452 223.546949 
L 359.721773 231.3764 
L 360.169093 195.692032 
L 360.616413 214.882823 
L 361.063733 213.80932 
L 361.958373 236.561548 
L 363.300333 216.656963 
L 363.747653 226.528064 
L 364.194973 222.642396 
L 364.642293 239.196206 
L 365.089613 201.752411 
L 365.536933 212.097827 
L 365.984253 232.993197 
L 366.431573 223.517873 
L 366.878893 219.607784 
L 367.326213 192.594176 
L 367.773533 220.90737 
L 368.668173 202.192287 
L 369.115494 195.501298 
L 369.562814 191.381382 
L 370.010134 217.54666 
L 370.457454 176.366622 
L 370.904774 203.087558 
L 371.352094 188.215079 
L 371.799414 180.315941 
L 372.246734 198.240353 
L 372.694054 190.677958 
L 373.141374 200.778662 
L 373.588694 181.632802 
L 374.036014 195.301846 
L 374.483334 194.509853 
L 374.930654 161.764674 
L 375.377974 171.545705 
L 375.825294 191.792152 
L 376.272614 188.099336 
L 376.719934 174.57275 
L 377.167254 166.49642 
L 377.614574 179.834395 
L 378.061894 181.41752 
L 378.509215 201.9131 
L 379.403855 167.157312 
L 379.851175 165.800671 
L 380.298495 159.633266 
L 380.745815 175.056744 
L 381.193135 159.25679 
L 381.640455 156.813817 
L 382.087775 174.031081 
L 382.535095 161.077702 
L 382.982415 157.177512 
L 383.429735 169.53022 
L 383.877055 160.801201 
L 384.324375 185.867588 
L 384.771695 187.718275 
L 385.219015 142.936111 
L 385.666335 166.380393 
L 386.113655 151.226201 
L 386.560975 147.10502 
L 387.008295 127.767942 
L 387.455615 167.2846 
L 387.902936 164.178229 
L 388.350256 162.161802 
L 388.797576 130.950274 
L 389.692216 142.798836 
L 390.139536 126.007463 
L 390.586856 153.053114 
L 391.034176 136.146626 
L 391.481496 146.350155 
L 391.928816 146.278345 
L 392.376136 140.968692 
L 392.823456 149.147547 
L 393.270776 121.863959 
L 393.718096 136.906674 
L 394.165416 131.72251 
L 394.612736 111.474912 
L 395.060056 103.594769 
L 395.507376 130.647501 
L 395.954696 150.010129 
L 396.402016 127.425342 
L 396.849336 119.747119 
L 397.296657 130.27105 
L 397.743977 118.892764 
L 398.191297 122.824651 
L 398.638617 118.435097 
L 399.085937 109.370408 
L 399.533257 119.136238 
L 399.980577 133.579682 
L 400.427897 96.371994 
L 400.875217 119.45438 
L 401.769857 110.501876 
L 402.664497 139.878307 
L 403.111817 95.030412 
L 403.559137 96.771554 
L 404.006457 118.77252 
L 404.453777 124.570094 
L 404.901097 102.25153 
L 405.348417 137.188248 
L 406.243057 91.708416 
L 406.690378 85.232202 
L 407.137698 119.694923 
L 408.032338 102.719635 
L 408.479658 84.292739 
L 408.926978 93.878201 
L 409.374298 91.766933 
L 409.821618 121.201269 
L 410.268938 113.027934 
L 410.716258 80.209563 
L 411.610898 112.299669 
L 412.058218 97.836796 
L 412.505538 101.602185 
L 412.952858 113.520562 
L 413.400178 66.884158 
L 413.847498 106.697586 
L 414.294818 98.033184 
L 414.742138 77.048541 
L 415.189458 101.21702 
L 415.636778 86.003745 
L 416.084099 80.374702 
L 416.531419 88.075503 
L 416.978739 86.177839 
L 417.426059 47.448951 
L 417.873379 100.711125 
L 418.320699 113.246771 
L 418.768019 72.765873 
L 419.215339 74.83392 
L 419.662659 81.502894 
L 420.109979 90.395507 
L 420.557299 66.130917 
L 421.004619 83.493781 
L 421.899259 64.595992 
L 422.346579 76.579935 
L 422.793899 93.571925 
L 423.241219 82.627681 
L 423.688539 91.161188 
L 424.135859 74.499364 
L 425.030499 79.249219 
L 425.477819 72.531805 
L 425.92514 59.89611 
L 426.37246 62.058831 
L 426.81978 53.289333 
L 427.2671 63.453045 
L 427.71442 69.239643 
L 428.16174 77.013227 
L 428.60906 78.441767 
L 429.05638 51.956767 
L 429.5037 108.051613 
L 429.95102 85.733446 
L 430.39834 118.954391 
L 430.84566 101.879354 
L 431.29298 72.295536 
L 431.7403 86.09327 
L 432.63494 65.681359 
L 433.08226 66.99097 
L 433.52958 49.250275 
L 433.9769 75.075903 
L 434.42422 75.875781 
L 434.87154 75.342271 
L 435.318861 84.116771 
L 435.766181 86.298312 
L 436.213501 82.654441 
L 436.660821 101.978956 
L 437.108141 72.021307 
L 437.555461 77.818282 
L 438.002781 58.012859 
L 438.450101 65.207457 
L 438.897421 62.459008 
L 439.344741 63.637637 
L 440.239381 94.726639 
L 440.686701 77.012029 
L 441.134021 84.426654 
L 441.581341 55.175641 
L 442.028661 41.113636 
L 442.475981 93.517482 
L 442.923301 93.537841 
L 443.370621 76.001455 
L 443.817941 84.571769 
L 444.265261 77.160124 
L 445.159902 51.543469 
L 445.607222 51.947868 
L 446.054542 45.748094 
L 446.501862 77.531242 
L 446.949182 99.73833 
L 447.396502 91.715982 
L 447.843822 49.55705 
L 448.291142 72.495692 
L 448.738462 104.709528 
L 449.185782 63.500671 
L 449.633102 59.724638 
L 450.080422 93.434496 
L 450.527742 60.625803 
L 450.975062 80.682612 
L 451.422382 51.310418 
L 451.869702 83.299697 
L 452.317022 56.016448 
L 453.211662 85.416102 
L 454.106303 64.252007 
L 454.553623 72.151332 
L 455.000943 68.673779 
L 455.448263 87.297602 
L 455.895583 82.844839 
L 456.342903 76.422795 
L 456.790223 109.000887 
L 457.237543 79.91299 
L 457.684863 100.404998 
L 458.132183 71.816857 
L 458.579503 96.330497 
L 459.026823 80.941227 
L 459.921463 110.886305 
L 460.368783 91.672991 
L 460.816103 85.685172 
L 461.263423 104.251888 
L 461.710743 91.268207 
L 462.158063 89.812682 
L 462.605383 75.176138 
L 463.052703 79.882275 
L 463.500024 101.352751 
L 463.947344 71.636317 
L 464.394664 64.53573 
L 465.289304 110.822145 
L 465.736624 105.41397 
L 466.183944 108.973982 
L 466.631264 82.997146 
L 467.078584 82.124502 
L 467.525904 101.907274 
L 467.973224 101.835782 
L 468.420544 112.878799 
L 468.867864 107.638156 
L 469.315184 75.38783 
L 470.209824 104.303772 
L 470.657144 100.608734 
L 471.104464 112.209344 
L 471.551784 92.522619 
L 471.999104 118.130153 
L 472.446424 99.385824 
L 472.893745 104.855384 
L 473.341065 92.704246 
L 473.788385 111.209846 
L 474.683025 81.981336 
L 475.130345 113.374698 
L 475.577665 105.797511 
L 476.024985 101.930395 
L 476.472305 129.013151 
L 476.919625 122.485479 
L 477.366945 138.33158 
L 477.814265 119.710455 
L 478.261585 109.130962 
L 478.708905 90.971748 
L 479.156225 127.864633 
L 479.603545 113.795211 
L 480.050865 115.495389 
L 480.945505 141.030093 
L 481.392825 145.501574 
L 481.840145 97.161984 
L 482.287466 139.154135 
L 482.734786 128.987728 
L 483.182106 164.800568 
L 484.076746 120.666029 
L 484.524066 112.245952 
L 485.418706 177.428459 
L 485.866026 114.053936 
L 486.313346 149.492979 
L 486.760666 138.251465 
L 487.207986 133.934075 
L 487.655306 149.434524 
L 488.102626 149.727175 
L 488.549946 155.144568 
L 488.997266 129.120147 
L 489.444586 147.583095 
L 489.891906 130.007779 
L 490.339226 138.384498 
L 490.786546 162.059093 
L 491.233866 129.674957 
L 491.681186 165.0506 
L 492.128507 159.645188 
L 492.575827 147.00196 
L 493.023147 161.590507 
L 493.470467 147.695932 
L 493.917787 161.674575 
L 494.365107 169.300934 
L 494.812427 147.50464 
L 495.259747 147.316501 
L 495.707067 155.415176 
L 496.154387 157.293338 
L 496.601707 162.779566 
L 497.049027 174.307481 
L 497.496347 158.906143 
L 498.390987 173.577502 
L 498.838307 174.785099 
L 499.285627 184.702962 
L 499.732947 184.077177 
L 500.180267 181.162099 
L 500.627587 169.036113 
L 501.074907 182.041667 
L 501.522228 172.653146 
L 501.969548 188.652149 
L 502.416868 193.957442 
L 502.864188 163.366602 
L 503.758828 218.654215 
L 504.206148 171.705111 
L 504.653468 195.62683 
L 505.100788 190.194004 
L 505.548108 202.098509 
L 505.995428 194.929233 
L 506.442748 165.644147 
L 506.890068 184.094058 
L 507.337388 186.549703 
L 507.784708 205.433734 
L 508.232028 203.763034 
L 508.679348 194.594639 
L 509.126668 224.303258 
L 509.573988 207.848362 
L 510.021308 209.128827 
L 510.915949 198.174939 
L 511.363269 207.907447 
L 511.810589 204.107553 
L 512.257909 215.869792 
L 512.705229 208.779481 
L 513.599869 241.182672 
L 514.047189 219.869319 
L 514.494509 235.928962 
L 514.941829 207.105423 
L 515.389149 216.33216 
L 515.836469 246.861686 
L 516.283789 221.977243 
L 516.731109 219.553276 
L 517.178429 211.567302 
L 517.625749 210.041515 
L 518.073069 230.047962 
L 518.520389 235.381838 
L 518.967709 245.288218 
L 519.415029 225.139313 
L 520.30967 236.362402 
L 521.20431 219.570468 
L 521.65163 235.620396 
L 522.09895 218.973353 
L 522.54627 243.579603 
L 522.99359 260.136137 
L 523.44091 255.666156 
L 523.88823 249.138637 
L 524.33555 266.08554 
L 524.78287 241.103287 
L 525.23019 251.761135 
L 525.67751 249.869512 
L 526.12483 255.093697 
L 526.57215 251.934629 
L 527.46679 272.485583 
L 527.91411 257.531958 
L 528.36143 265.564045 
L 529.25607 238.759412 
L 529.703391 266.345217 
L 530.150711 266.884703 
L 530.598031 259.130747 
L 531.045351 271.259283 
L 531.492671 276.931327 
L 531.939991 258.862239 
L 532.387311 269.620003 
L 532.834631 238.836206 
L 533.281951 253.922042 
L 533.729271 261.475345 
L 534.176591 297.247954 
L 534.623911 260.058666 
L 535.071231 268.730911 
L 535.518551 257.650934 
L 535.518551 257.650934 
" clip-path="url(#p2842e525f6)" style="fill: none; stroke: #0000ff; stroke-opacity: 0.8; stroke-width: 2; stroke-linecap: square"/>
   </g>
   <g id="patch_3">
    <path d="M 66.302188 376.77 
L 66.302188 25.13 
" style="fill: none; stroke: #000000; stroke-width: 0.8; stroke-linejoin: miter; stroke-linecap: square"/>
   </g>
   <g id="patch_4">
    <path d="M 557.862188 376.77 
L 557.862188 25.13 
" style="fill: none; stroke: #000000; stroke-width: 0.8; stroke-linejoin: miter; stroke-linecap: square"/>
   </g>
   <g id="patch_5">
    <path d="M 66.302188 376.77 
L 557.862188 376.77 
" style="fill: none; stroke: #000000; stroke-width: 0.8; stroke-linejoin: miter; stroke-linecap: square"/>
   </g>
   <g id="patch_6">
    <path d="M 66.302188 25.13 
L 557.862188 25.13 
" style="fill: none; stroke: #000000; stroke-width: 0.8; stroke-linejoin: miter; stroke-linecap: square"/>
   </g>
   <g id="text_14">
    <!-- Energy vs Time -->
    <g transform="translate(248.963438 19.13) scale(0.16 -0.16)">
     <defs>
      <path id="DejaVuSerif-76" d="M 1581 0 
L 359 2988 
L -19 2988 
L -19 3322 
L 1509 3322 
L 1509 2988 
L 978 2988 
L 1913 703 
L 2847 2988 
L 2350 2988 
L 2350 3322 
L 3597 3322 
L 3597 2988 
L 3225 2988 
L 2003 0 
L 1581 0 
z
" transform="scale(0.015625)"/>
     </defs>
     <use xlink:href="#DejaVuSerif-45"/>
     <use xlink:href="#DejaVuSerif-6e" transform="translate(72.998047 0)"/>
     <use xlink:href="#DejaVuSerif-65" transform="translate(137.402344 0)"/>
     <use xlink:href="#DejaVuSerif-72" transform="translate(196.582031 0)"/>
     <use xlink:href="#DejaVuSerif-67" transform="translate(244.384766 0)"/>
     <use xlink:href="#DejaVuSerif-79" transform="translate(308.398438 0)"/>
     <use xlink:href="#DejaVuSerif-20" transform="translate(364.892578 0)"/>
     <use xlink:href="#DejaVuSerif-76" transform="translate(396.679688 0)"/>
     <use xlink:href="#DejaVuSerif-73" transform="translate(453.173828 0)"/>
     <use xlink:href="#DejaVuSerif-20" transform="translate(504.492188 0)"/>
     <use xlink:href="#DejaVuSerif-54" transform="translate(536.279297 0)"/>
     <use xlink:href="#DejaVuSerif-69" transform="translate(602.978516 0)"/>
     <use xlink:href="#DejaVuSerif-6d" transform="translate(634.960938 0)"/>
     <use xlink:href="#DejaVuSerif-65" transform="translate(729.785156 0)"/>
    </g>
   </g>
  </g>
 </g>
 <defs>
  <clipPath id="p2842e525f6">
   <rect x="66.302188" y="25.13" width="491.56" height="351.64"/>
  </clipPath>
 </defs>
</svg>
