<?xml version="1.0" encoding="utf-8" standalone="no"?>
<!DOCTYPE svg PUBLIC "-//W3C//DTD SVG 1.1//EN"
  "http://www.w3.org/Graphics/SVG/1.1/DTD/svg11.dtd">
<svg xmlns:xlink="http://www.w3.org/1999/xlink" width="443.52pt" height="443.52pt" viewBox="0 0 443.52 443.52" xmlns="http://www.w3.org/2000/svg" version="1.1">
 <metadata>
  <rdf:RDF xmlns:dc="http://purl.org/dc/elements/1.1/" xmlns:cc="http://creativecommons.org/ns#" xmlns:rdf="http://www.w3.org/1999/02/22-rdf-syntax-ns#">
   <cc:Work>
    <dc:type rdf:resource="http://purl.org/dc/dcmitype/StillImage"/>
    <dc:date>2025-12-17T18:33:45.738816</dc:date>
    <dc:format>image/svg+xml</dc:format>
    <dc:creator>
     <cc:Agent>
      <dc:title>Matplotlib v3.10.5, https://matplotlib.org/</dc:title>
     </cc:Agent>
    </dc:creator>
   </cc:Work>
  </rdf:RDF>
 </metadata>
 <defs>
  <style type="text/css">*{stroke-linejoin: round; stroke-linecap: butt}</style>
 </defs>
 <g id="figure_1">
  <g id="patch_1">
   <path d="M 0 443.52 
L 443.52 443.52 
L 443.52 0 
L 0 0 
z
" style="fill: #ffffff"/>
  </g>
  <g id="axes_1">
   <g id="line2d_1">
    <path d="M 221.76 221.76 
L 110.88 332.64 
" clip-path="url(#p5a282f125c)" style="fill: none; stroke: #000000; stroke-opacity: 0.7; stroke-linecap: square"/>
   </g>
   <g id="line2d_2">
    <path d="M 221.76 221.76 
L 332.64 332.64 
" clip-path="url(#p5a282f125c)" style="fill: none; stroke: #000000; stroke-opacity: 0.7; stroke-linecap: square"/>
   </g>
   <g id="PathCollection_1">
    <defs>
     <path id="m7dedfcc88c" d="M 0 5.91608 
C 1.568963 5.91608 3.073876 5.292724 4.1833 4.1833 
C 5.292724 3.073876 5.91608 1.568963 5.91608 0 
C 5.91608 -1.568963 5.292724 -3.073876 4.1833 -4.1833 
C 3.073876 -5.292724 1.568963 -5.91608 0 -5.91608 
C -1.568963 -5.91608 -3.073876 -5.292724 -4.1833 -4.1833 
C -5.292724 -3.073876 -5.91608 -1.568963 -5.91608 0 
C -5.91608 1.568963 -5.292724 3.073876 -4.1833 4.1833 
C -3.073876 5.292724 -1.568963 5.91608 0 5.91608 
z
" style="stroke: #000000; stroke-opacity: 0.9; stroke-width: 0.5"/>
    </defs>
    <g clip-path="url(#p5a282f125c)">
     <use xlink:href="#m7dedfcc88c" x="221.76" y="221.76" style="fill: #ff0000; fill-opacity: 0.9; stroke: #000000; stroke-opacity: 0.9; stroke-width: 0.5"/>
    </g>
   </g>
   <g id="PathCollection_2">
    <defs>
     <path id="m5cc396bf74" d="M 0 3.872983 
C 1.027127 3.872983 2.012324 3.464901 2.738613 2.738613 
C 3.464901 2.012324 3.872983 1.027127 3.872983 0 
C 3.872983 -1.027127 3.464901 -2.012324 2.738613 -2.738613 
C 2.012324 -3.464901 1.027127 -3.872983 0 -3.872983 
C -1.027127 -3.872983 -2.012324 -3.464901 -2.738613 -2.738613 
C -3.464901 -2.012324 -3.872983 -1.027127 -3.872983 0 
C -3.872983 1.027127 -3.464901 2.012324 -2.738613 2.738613 
C -2.012324 3.464901 -1.027127 3.872983 0 3.872983 
z
" style="stroke: #000000; stroke-opacity: 0.9; stroke-width: 0.5"/>
    </defs>
    <g clip-path="url(#p5a282f125c)">
     <use xlink:href="#m5cc396bf74" x="110.88" y="332.64" style="fill: #ffffff; fill-opacity: 0.9; stroke: #000000; stroke-opacity: 0.9; stroke-width: 0.5"/>
    </g>
   </g>
   <g id="PathCollection_3">
    <g clip-path="url(#p5a282f125c)">
     <use xlink:href="#m5cc396bf74" x="332.64" y="332.64" style="fill: #ffffff; fill-opacity: 0.9; stroke: #000000; stroke-opacity: 0.9; stroke-width: 0.5"/>
    </g>
   </g>
  </g>
 </g>
 <defs>
  <clipPath id="p5a282f125c">
   <rect x="0" y="-0" width="443.52" height="443.52"/>
  </clipPath>
 </defs>
</svg>
